<svg xmlns="http://www.w3.org/2000/svg" xmlns:xlink="http://www.w3.org/1999/xlink" width="401" height="332" viewBox="0 0 401 332">
    <defs>
        <path id="wm87ukl5la" d="M.25 2.73l62.37 36.243c12.221-4.115 23.14-3.38 31.622 1.548C73.457 28.44 52.668 16.36 31.881 4.276 27.106 1.503 21.561.06 15.447.06 10.694.06 5.597.932.25 2.73"/>
        <path id="el6js5ci2c" d="M0.264 0.384L178.821 0.384 178.821 141.272 0.264 141.272z"/>
        <path id="qpp2xavaee" d="M.535 72.267l62.366 36.245c3.027-27.46 22.003-58.24 45.135-71.837L45.666.429C22.537 14.026 3.564 44.806.537 72.267"/>
        <path id="9vkr4q86eg" d="M.548 76.832c.043 14.247 5.067 24.27 13.18 28.981l62.362 36.244c-8.106-4.712-13.133-14.735-13.172-28.98-.085-27.714 18.738-61.174 42.511-76.404L43.064.428C19.294 15.66.472 49.118.548 76.832"/>
        <path id="2lwy5xaqri" d="M71.266 30.357L5.232 68.705.275 72.932l.276 92.385s37.427 83.473 37.427 85.098c0 1.626 143.02-23.974 143.02-23.974l21.75-129.27-58.09-96.64"/>
        <path id="jdpnerd6fk" d="M71.266 30.357L5.232 68.705.275 72.932l.276 92.385s37.427 83.473 37.427 85.098c0 1.626 143.02-23.974 143.02-23.974l21.75-129.27-58.09-96.64"/>
        <path id="axcmtuob4m" d="M71.266 30.357L5.232 68.705.275 72.932l.276 92.385s37.427 83.473 37.427 85.098c0 1.626 143.02-23.974 143.02-23.974l21.75-129.27-58.09-96.64"/>
        <path id="l8wszen6do" d="M71.266 30.357L5.232 68.705.275 72.932l.276 92.385s37.427 83.473 37.427 85.098c0 1.626 143.02-23.974 143.02-23.974l21.75-129.27-58.09-96.64"/>
        <path id="cm9791uvqq" d="M71.266 30.357L5.232 68.705.275 72.932l.276 92.385s37.427 83.473 37.427 85.098c0 1.626 143.02-23.974 143.02-23.974l21.75-129.27-58.09-96.64"/>
        <path id="s1q258vixs" d="M71.266 30.357L5.232 68.705.275 72.932l.276 92.385s37.427 83.473 37.427 85.098c0 1.626 143.02-23.974 143.02-23.974l21.75-129.27-58.09-96.64"/>
        <path id="f235fuf8vu" d="M71.266 30.357L5.232 68.705.275 72.932l.276 92.385s37.427 83.473 37.427 85.098c0 1.626 143.02-23.974 143.02-23.974l21.75-129.27-58.09-96.64"/>
        <path id="cme0myd3tw" d="M71.266 30.357L5.232 68.705.275 72.932l.276 92.385s37.427 83.473 37.427 85.098c0 1.626 143.02-23.974 143.02-23.974l21.75-129.27-58.09-96.64"/>
        <path id="i6zbubiqay" d="M71.266 30.357L5.232 68.705.275 72.932l.276 92.385s37.427 83.473 37.427 85.098c0 1.626 143.02-23.974 143.02-23.974l21.75-129.27-58.09-96.64"/>
        <path id="2whnjexfmA" d="M71.266 30.357L5.232 68.705.275 72.932l.276 92.385s37.427 83.473 37.427 85.098c0 1.626 143.02-23.974 143.02-23.974l21.75-129.27-58.09-96.64-73.392 29.826z"/>
        <path id="b1wugbje5C" d="M71.266 30.357L5.232 68.705.275 72.932l.276 92.385s37.427 83.473 37.427 85.098c0 1.626 143.02-23.974 143.02-23.974l21.75-129.27-58.09-96.64"/>
        <path id="nvc7gwrh6E" d="M71.266 30.357L5.232 68.705.275 72.932l.276 92.385s37.427 83.473 37.427 85.098c0 1.626 143.02-23.974 143.02-23.974l21.75-129.27-58.09-96.64"/>
        <path id="iq5lngppfG" d="M71.266 30.357L5.232 68.705.275 72.932l.276 92.385s37.427 83.473 37.427 85.098c0 1.626 143.02-23.974 143.02-23.974l21.75-129.27-58.09-96.64"/>
        <path id="4xtx5p2kfI" d="M71.266 30.357L5.232 68.705.275 72.932l.276 92.385s37.427 83.473 37.427 85.098c0 1.626 143.02-23.974 143.02-23.974l21.75-129.27-58.09-96.64"/>
        <path id="0pdxem8k8K" d="M71.266 30.357L5.232 68.705.275 72.932l.276 92.385s37.427 83.473 37.427 85.098c0 1.626 143.02-23.974 143.02-23.974l21.75-129.27-58.09-96.64"/>
        <path id="y1pdyw104M" d="M71.266 30.357L5.232 68.705.275 72.932l.276 92.385s37.427 83.473 37.427 85.098c0 1.626 143.02-23.974 143.02-23.974l21.75-129.27-58.09-96.64-73.392 29.826z"/>
        <path id="ujuciaogwO" d="M71.266 30.357L5.232 68.705.275 72.932l.276 92.385s37.427 83.473 37.427 85.098c0 1.626 143.02-23.974 143.02-23.974l21.75-129.27-58.09-96.64"/>
        <path id="7ugul7byrQ" d="M71.266 30.357L5.232 68.705.275 72.932l.276 92.385s37.427 83.473 37.427 85.098c0 1.626 143.02-23.974 143.02-23.974l21.75-129.27-58.09-96.64"/>
        <path id="yuychh5nnS" d="M71.266 30.357L5.232 68.705.275 72.932l.276 92.385s37.427 83.473 37.427 85.098c0 1.626 143.02-23.974 143.02-23.974l21.75-129.27-58.09-96.64"/>
        <path id="ki73dmb45U" d="M71.266 30.357L5.232 68.705.275 72.932l.276 92.385s37.427 83.473 37.427 85.098c0 1.626 143.02-23.974 143.02-23.974l21.75-129.27-58.09-96.64"/>
        <path id="7det1y1afW" d="M71.266 30.357L5.232 68.705.275 72.932l.276 92.385s37.427 83.473 37.427 85.098c0 1.626 143.02-23.974 143.02-23.974l21.75-129.27-58.09-96.64-73.392 29.826z"/>
        <path id="zqynuii19Y" d="M71.266 30.357L5.232 68.705.275 72.932l.276 92.385s37.427 83.473 37.427 85.098c0 1.626 143.02-23.974 143.02-23.974l21.75-129.27-58.09-96.64"/>
        <path id="htwrp5w49aa" d="M71.266 30.357L5.232 68.705.275 72.932l.276 92.385s37.427 83.473 37.427 85.098c0 1.626 143.02-23.974 143.02-23.974l21.75-129.27-58.09-96.64"/>
        <path id="yfe8y63hdac" d="M90.148 1.801L71.266 3.345 49.85 16.161 38.416 22.422 5.232 41.693 0.275 45.92 0.385 82.741 87.045 133.195 131.336 101.288 148.907 74.525 139.968 22.609 125.316 0.043z"/>
        <path id="djfs3pbg0ae" d="M90.148 1.801L71.266 3.345 49.85 16.161 38.416 22.422 5.232 41.693 0.275 45.92 0.385 82.741 87.045 133.195 131.336 101.288 148.907 74.525 139.968 22.609 125.316 0.043z"/>
        <path id="24e33ecylag" d="M90.148 1.801L71.266 3.345 49.85 16.161 38.416 22.422 5.232 41.693 0.275 45.92 0.385 82.741 87.045 133.195 131.336 101.288 148.907 74.525 139.968 22.609 125.316 0.043z"/>
        <path id="x8qfsbg29ai" d="M90.148 1.801L71.266 3.345 49.85 16.161 38.416 22.422 5.232 41.693 0.275 45.92 0.385 82.741 87.045 133.195 131.336 101.288 148.907 74.525 139.968 22.609 125.316 0.043z"/>
        <path id="8jcwom7mdak" d="M90.148 1.801L71.266 3.345 49.85 16.161 38.416 22.422 5.232 41.693 0.275 45.92 0.385 82.741 87.045 133.195 131.336 101.288 148.907 74.525 139.968 22.609 125.316 0.043z"/>
        <path id="tomucrw6yam" d="M90.148 1.801L71.266 3.345 49.85 16.161 38.416 22.422 5.232 41.693 0.275 45.92 0.385 82.741 87.045 133.195 131.336 101.288 148.907 74.525 139.968 22.609 125.316 0.043z"/>
        <path id="tcsdkkybyao" d="M90.148 1.801L71.266 3.345 49.85 16.161 38.416 22.422 5.232 41.693 0.275 45.92 0.385 82.741 87.045 133.195 131.336 101.288 148.907 74.525 139.968 22.609 125.316 0.043z"/>
        <path id="1df3sojfpaq" d="M90.148 1.801L71.266 3.345 49.85 16.161 38.416 22.422 5.232 41.693 0.275 45.92 0.385 82.741 87.045 133.195 131.336 101.288 148.907 74.525 139.968 22.609 125.316 0.043z"/>
        <path id="vpk1jnhcwas" d="M90.148 1.801L71.266 3.345 49.85 16.161 38.416 22.422 5.232 41.693 0.275 45.92 0.385 82.741 87.045 133.195 131.336 101.288 148.907 74.525 139.968 22.609 125.316 0.043"/>
        <path id="gxreipg7jau" d="M90.148 1.801L71.266 3.345 49.85 16.161 38.416 22.422 5.232 41.693 0.275 45.92 0.385 82.741 87.045 133.195 131.336 101.288 148.907 74.525 139.968 22.609 125.316 0.043"/>
        <path id="wvk0tnjj4aw" d="M90.148 1.801L71.266 3.345 49.85 16.161 38.416 22.422 5.232 41.693 0.275 45.92 0.385 82.741 87.045 133.195 131.336 101.288 148.907 74.525 139.968 22.609 125.316 0.043z"/>
        <path id="yyl4dpglaay" d="M90.148 1.801L71.266 3.345 49.85 16.161 38.416 22.422 5.232 41.693 0.275 45.92 0.385 82.741 87.045 133.195 131.336 101.288 148.907 74.525 139.968 22.609 125.316 0.043z"/>
        <path id="zxryvzwfraA" d="M90.148 1.801L71.266 3.345 49.85 16.161 38.416 22.422 5.232 41.693 0.275 45.92 0.385 82.741 87.045 133.195 131.336 101.288 148.907 74.525 139.968 22.609 125.316 0.043z"/>
        <path id="xmsz6kh1raC" d="M90.148 1.801L71.266 3.345 49.85 16.161 38.416 22.422 5.232 41.693 0.275 45.92 0.385 82.741 87.045 133.195 131.336 101.288 148.907 74.525 139.968 22.609 125.316 0.043z"/>
        <path id="6rsy8djl0aE" d="M90.148 1.801L71.266 3.345 49.85 16.161 38.416 22.422 5.232 41.693 0.275 45.92 0.385 82.741 87.045 133.195 131.336 101.288 148.907 74.525 139.968 22.609 125.316 0.043z"/>
        <path id="z1e1atmdiaG" d="M90.148 1.801L71.266 3.345 49.85 16.161 38.416 22.422 5.232 41.693 0.275 45.92 0.385 82.741 87.045 133.195 131.336 101.288 148.907 74.525 139.968 22.609 125.316 0.043z"/>
        <path id="5b6re3vopaI" d="M90.148 1.801L71.266 3.345 49.85 16.161 38.416 22.422 5.232 41.693 0.275 45.92 0.385 82.741 87.045 133.195 131.336 101.288 148.907 74.525 139.968 22.609 125.316 0.043z"/>
        <path id="vqw7x8d9vaK" d="M90.148 1.801L71.266 3.345 49.85 16.161 38.416 22.422 5.232 41.693 0.275 45.92 0.385 82.741 87.045 133.195 131.336 101.288 148.907 74.525 139.968 22.609 125.316 0.043z"/>
        <path id="dkxh2k7v2aM" d="M90.148 1.801L71.266 3.345 49.85 16.161 38.416 22.422 5.232 41.693 0.275 45.92 0.385 82.741 87.045 133.195 131.336 101.288 148.907 74.525 139.968 22.609 125.316 0.043z"/>
        <path id="0cic1oupdaO" d="M90.148 1.801L71.266 3.345 49.85 16.161 38.416 22.422 5.232 41.693 0.275 45.92 0.385 82.741 87.045 133.195 131.336 101.288 148.907 74.525 139.968 22.609 125.316 0.043"/>
        <path id="umlqneb43aQ" d="M90.148 1.801L71.266 3.345 49.85 16.161 38.416 22.422 5.232 41.693 0.275 45.92 0.385 82.741 87.045 133.195 131.336 101.288 148.907 74.525 139.968 22.609 125.316 0.043"/>
        <path id="fpyuzp9c5aS" d="M90.148 1.801L71.266 3.345 49.85 16.161 38.416 22.422 5.232 41.693 0.275 45.92 0.385 82.741 87.045 133.195 131.336 101.288 148.907 74.525 139.968 22.609 125.316 0.043z"/>
        <path id="0tk41whd1aU" d="M90.148 1.801L71.266 3.345 49.85 16.161 38.416 22.422 5.232 41.693 0.275 45.92 0.385 82.741 87.045 133.195 131.336 101.288 148.907 74.525 139.968 22.609 125.316 0.043z"/>
        <path id="3exj5happaW" d="M90.148 1.801L71.266 3.345 49.85 16.161 38.416 22.422 5.232 41.693 0.275 45.92 0.385 82.741 87.045 133.195 131.336 101.288 148.907 74.525 139.968 22.609 125.316 0.043z"/>
        <path id="q1w2lvcf6aY" d="M90.148 1.801L71.266 3.345 49.85 16.161 38.416 22.422 5.232 41.693 0.275 45.92 0.385 82.741 87.045 133.195 131.336 101.288 148.907 74.525 139.968 22.609 125.316 0.043z"/>
        <path id="rkm1h34rgba" d="M90.148 1.801L71.266 3.345 49.85 16.161 38.416 22.422 5.232 41.693 0.275 45.92 0.385 82.741 87.045 133.195 131.336 101.288 148.907 74.525 139.968 22.609 125.316 0.043z"/>
        <path id="x40pepr79bc" d="M90.148 1.801L71.266 3.345 49.85 16.161 38.416 22.422 5.232 41.693 0.275 45.92 0.385 82.741 87.045 133.195 131.336 101.288 148.907 74.525 139.968 22.609 125.316 0.043z"/>
        <path id="iyzbobrr0be" d="M90.148 1.801L71.266 3.345 49.85 16.161 38.416 22.422 5.232 41.693 0.275 45.92 0.385 82.741 87.045 133.195 131.336 101.288 148.907 74.525 139.968 22.609 125.316 0.043z"/>
        <path id="zx6t6ntrqbg" d="M90.148 1.801L71.266 3.345 49.85 16.161 38.416 22.422 5.232 41.693 0.275 45.92 0.385 82.741 87.045 133.195 131.336 101.288 148.907 74.525 139.968 22.609 125.316 0.043z"/>
        <path id="1vo3mt1zvbi" d="M90.148 1.801L71.266 3.345 49.85 16.161 38.416 22.422 5.232 41.693 0.275 45.92 0.385 82.741 87.045 133.195 131.336 101.288 148.907 74.525 139.968 22.609 125.316 0.043z"/>
        <path id="nz6qcpjpobk" d="M90.148 1.801L71.266 3.345 49.85 16.161 38.416 22.422 5.232 41.693 0.275 45.92 0.385 82.741 87.045 133.195 131.336 101.288 148.907 74.525 139.968 22.609 125.316 0.043"/>
        <path id="y3491um9vbm" d="M90.148 1.801L71.266 3.345 49.85 16.161 38.416 22.422 5.232 41.693 0.275 45.92 0.385 82.741 87.045 133.195 131.336 101.288 148.907 74.525 139.968 22.609 125.316 0.043"/>
        <path id="4dknhxc14bo" d="M90.148 1.801L71.266 3.345 49.85 16.161 38.416 22.422 5.232 41.693 0.275 45.92 0.385 82.741 87.045 133.195 131.336 101.288 148.907 74.525 139.968 22.609 125.316 0.043z"/>
        <path id="ym1v5dfawbq" d="M71.266 30.357L5.232 68.705.275 72.932l.276 92.385s37.427 83.473 37.427 85.098c0 1.626 143.02-23.974 143.02-23.974l21.75-129.27-58.09-96.64-73.392 29.826z"/>
        <path id="mbap5rz1tbs" d="M71.266 30.357L5.232 68.705.275 72.932l.276 92.385s37.427 83.473 37.427 85.098c0 1.626 143.02-23.974 143.02-23.974l21.75-129.27-58.09-96.64-73.392 29.826z"/>
        <path id="fyt6xz0jjbu" d="M.215 151.982l57.151 26.613-.005-1.514c-.012-4.456 3.12-9.883 6.999-12.122l76.356-44.084c1.951-1.126 3.72-1.231 4.995-.49l5.483 3.537-.015-.006c1.268.73 2.055 2.29 2.06 4.511l.252 87.738c.004 2.055-.663 4.314-1.76 6.374l23.352 10.874 19.62-109.23L138.309 4.884 17.476.006.215 151.982z"/>
        <path id="04dnfnk8qbw" d="M.215 151.982l57.151 26.613-.005-1.514c-.012-4.456 3.12-9.883 6.999-12.122l76.356-44.084c1.951-1.126 3.72-1.231 4.995-.49l5.483 3.537-.015-.006c1.268.73 2.055 2.29 2.06 4.511l.252 87.738c.004 2.055-.663 4.314-1.76 6.374l23.352 10.874 19.62-109.23L138.309 4.884 17.476.006"/>
        <path id="gyjt95ojsby" d="M.215 151.982l57.151 26.613-.005-1.514c-.012-4.456 3.12-9.883 6.999-12.122l76.356-44.084c1.951-1.126 3.72-1.231 4.995-.49l5.483 3.537-.015-.006c1.268.73 2.055 2.29 2.06 4.511l.252 87.738c.004 2.055-.663 4.314-1.76 6.374l23.352 10.874 19.62-109.23L138.309 4.884 17.476.006.215 151.982z"/>
        <path id="2cln403v8bA" d="M.215 151.982l57.151 26.613-.005-1.514c-.012-4.456 3.12-9.883 6.999-12.122l76.356-44.084c1.951-1.126 3.72-1.231 4.995-.49l5.483 3.537-.015-.006c1.268.73 2.055 2.29 2.06 4.511l.252 87.738c.004 2.055-.663 4.314-1.76 6.374l23.352 10.874 19.62-109.23L138.309 4.884 17.476.006.215 151.982z"/>
        <path id="hjteibuo5bC" d="M.215 151.982l57.151 26.613-.005-1.514c-.012-4.456 3.12-9.883 6.999-12.122l76.356-44.084c1.951-1.126 3.72-1.231 4.995-.49l5.483 3.537-.015-.006c1.268.73 2.055 2.29 2.06 4.511l.252 87.738c.004 2.055-.663 4.314-1.76 6.374l23.352 10.874 19.62-109.23L138.309 4.884 17.476.006"/>
        <path id="5k2aa0a0ebE" d="M.215 151.982l57.151 26.613-.005-1.514c-.012-4.456 3.12-9.883 6.999-12.122l76.356-44.084c1.951-1.126 3.72-1.231 4.995-.49l5.483 3.537-.015-.006c1.268.73 2.055 2.29 2.06 4.511l.252 87.738c.004 2.055-.663 4.314-1.76 6.374l23.352 10.874 19.62-109.23L138.309 4.884 17.476.006"/>
        <path id="y2ds6d6pkbG" d="M.215 151.982l57.151 26.613-.005-1.514c-.012-4.456 3.12-9.883 6.999-12.122l76.356-44.084c1.951-1.126 3.72-1.231 4.995-.49l5.483 3.537-.015-.006c1.268.73 2.055 2.29 2.06 4.511l.252 87.738c.004 2.055-.663 4.314-1.76 6.374l23.352 10.874 19.62-109.23L138.309 4.884 17.476.006.215 151.982z"/>
        <path id="b1nk7b5msbI" d="M.215 151.982l57.151 26.613-.005-1.514c-.012-4.456 3.12-9.883 6.999-12.122l76.356-44.084c1.951-1.126 3.72-1.231 4.995-.49l5.483 3.537-.015-.006c1.268.73 2.055 2.29 2.06 4.511l.252 87.738c.004 2.055-.663 4.314-1.76 6.374l23.352 10.874 19.62-109.23L138.309 4.884 17.476.006.215 151.982z"/>
        <path id="igpy895ggbK" d="M.215 151.982l57.151 26.613-.005-1.514c-.012-4.456 3.12-9.883 6.999-12.122l76.356-44.084c1.951-1.126 3.72-1.231 4.995-.49l5.483 3.537-.015-.006c1.268.73 2.055 2.29 2.06 4.511l.252 87.738c.004 2.055-.663 4.314-1.76 6.374l23.352 10.874 19.62-109.23L138.309 4.884 17.476.006"/>
        <path id="kwgzax4cdbM" d="M.215 151.982l57.151 26.613-.005-1.514c-.012-4.456 3.12-9.883 6.999-12.122l76.356-44.084c1.951-1.126 3.72-1.231 4.995-.49l5.483 3.537-.015-.006c1.268.73 2.055 2.29 2.06 4.511l.252 87.738c.004 2.055-.663 4.314-1.76 6.374l23.352 10.874 19.62-109.23L138.309 4.884 17.476.006.215 151.982z"/>
        <path id="01whh1jqpbO" d="M.215 151.982l57.151 26.613-.005-1.514c-.012-4.456 3.12-9.883 6.999-12.122l76.356-44.084c1.951-1.126 3.72-1.231 4.995-.49l5.483 3.537-.015-.006c1.268.73 2.055 2.29 2.06 4.511l.252 87.738c.004 2.055-.663 4.314-1.76 6.374l23.352 10.874 19.62-109.23L138.309 4.884 17.476.006.215 151.982z"/>
        <path id="42x9cn803bQ" d="M.215 151.982l57.151 26.613-.005-1.514c-.012-4.456 3.12-9.883 6.999-12.122l76.356-44.084c1.951-1.126 3.72-1.231 4.995-.49l5.483 3.537-.015-.006c1.268.73 2.055 2.29 2.06 4.511l.252 87.738c.004 2.055-.663 4.314-1.76 6.374l23.352 10.874 19.62-109.23L138.309 4.884 17.476.006"/>
        <path id="p3kx2hyqybS" d="M.215 151.982l57.151 26.613-.005-1.514c-.012-4.456 3.12-9.883 6.999-12.122l76.356-44.084c1.951-1.126 3.72-1.231 4.995-.49l5.483 3.537-.015-.006c1.268.73 2.055 2.29 2.06 4.511l.252 87.738c.004 2.055-.663 4.314-1.76 6.374l23.352 10.874 19.62-109.23L138.309 4.884 17.476.006"/>
        <path id="1gwvkxphkbU" d="M.215 151.982l57.151 26.613-.005-1.514c-.012-4.456 3.12-9.883 6.999-12.122l76.356-44.084c1.951-1.126 3.72-1.231 4.995-.49l5.483 3.537-.015-.006c1.268.73 2.055 2.29 2.06 4.511l.252 87.738c.004 2.055-.663 4.314-1.76 6.374l23.352 10.874 19.62-109.23L138.309 4.884 17.476.006.215 151.982z"/>
        <path id="gx2gsa8xjbW" d="M.215 151.982l57.151 26.613-.005-1.514c-.012-4.456 3.12-9.883 6.999-12.122l76.356-44.084c1.951-1.126 3.72-1.231 4.995-.49l5.483 3.537-.015-.006c1.268.73 2.055 2.29 2.06 4.511l.252 87.738c.004 2.055-.663 4.314-1.76 6.374l23.352 10.874 19.62-109.23L138.309 4.884 17.476.006"/>
        <path id="0vq0zvjczbY" d="M.215 151.982l57.151 26.613-.005-1.514c-.012-4.456 3.12-9.883 6.999-12.122l76.356-44.084c1.951-1.126 3.72-1.231 4.995-.49l5.483 3.537-.015-.006c1.268.73 2.055 2.29 2.06 4.511l.252 87.738c.004 2.055-.663 4.314-1.76 6.374l23.352 10.874 19.62-109.23L138.309 4.884 17.476.006.215 151.982z"/>
        <path id="ypcgqwxlvca" d="M.215 151.982l57.151 26.613-.005-1.514c-.012-4.456 3.12-9.883 6.999-12.122l76.356-44.084c1.951-1.126 3.72-1.231 4.995-.49l5.483 3.537-.015-.006c1.268.73 2.055 2.29 2.06 4.511l.252 87.738c.004 2.055-.663 4.314-1.76 6.374l23.352 10.874 19.62-109.23L138.309 4.884 17.476.006"/>
        <path id="8pur9zfgwcc" d="M.215 151.982l57.151 26.613-.005-1.514c-.012-4.456 3.12-9.883 6.999-12.122l76.356-44.084c1.951-1.126 3.72-1.231 4.995-.49l5.483 3.537-.015-.006c1.268.73 2.055 2.29 2.06 4.511l.252 87.738c.004 2.055-.663 4.314-1.76 6.374l23.352 10.874 19.62-109.23L138.309 4.884 17.476.006"/>
        <path id="olrvrgr43ce" d="M.215 151.982l57.151 26.613-.005-1.514c-.012-4.456 3.12-9.883 6.999-12.122l76.356-44.084c1.951-1.126 3.72-1.231 4.995-.49l5.483 3.537-.015-.006c1.268.73 2.055 2.29 2.06 4.511l.252 87.738c.004 2.055-.663 4.314-1.76 6.374l23.352 10.874 19.62-109.23L138.309 4.884 17.476.006"/>
        <path id="w5nrqjht3cg" d="M.215 151.982l57.151 26.613-.005-1.514c-.012-4.456 3.12-9.883 6.999-12.122l76.356-44.084c1.951-1.126 3.72-1.231 4.995-.49l5.483 3.537-.015-.006c1.268.73 2.055 2.29 2.06 4.511l.252 87.738c.004 2.055-.663 4.314-1.76 6.374l23.352 10.874 19.62-109.23L138.309 4.884 17.476.006"/>
        <path id="t950i0ve6ci" d="M.215 151.982l57.151 26.613-.005-1.514c-.012-4.456 3.12-9.883 6.999-12.122l76.356-44.084c1.951-1.126 3.72-1.231 4.995-.49l5.483 3.537-.015-.006c1.268.73 2.055 2.29 2.06 4.511l.252 87.738c.004 2.055-.663 4.314-1.76 6.374l23.352 10.874 19.62-109.23L138.309 4.884 17.476.006"/>
        <path id="jcaprsvg6ck" d="M.215 151.982l57.151 26.613-.005-1.514c-.012-4.456 3.12-9.883 6.999-12.122l76.356-44.084c1.951-1.126 3.72-1.231 4.995-.49l5.483 3.537-.015-.006c1.268.73 2.055 2.29 2.06 4.511l.252 87.738c.004 2.055-.663 4.314-1.76 6.374l23.352 10.874 19.62-109.23L138.309 4.884 17.476.006"/>
        <path id="ger6a3unwcm" d="M.215 151.982l57.151 26.613-.005-1.514c-.012-4.456 3.12-9.883 6.999-12.122l76.356-44.084c1.951-1.126 3.72-1.231 4.995-.49l5.483 3.537-.015-.006c1.268.73 2.055 2.29 2.06 4.511l.252 87.738c.004 2.055-.663 4.314-1.76 6.374l23.352 10.874 19.62-109.23L138.309 4.884 17.476.006"/>
        <path id="j8cmpv3j5co" d="M.215 151.982l57.151 26.613-.005-1.514c-.012-4.456 3.12-9.883 6.999-12.122l76.356-44.084c1.951-1.126 3.72-1.231 4.995-.49l5.483 3.537-.015-.006c1.268.73 2.055 2.29 2.06 4.511l.252 87.738c.004 2.055-.663 4.314-1.76 6.374l23.352 10.874 19.62-109.23L138.309 4.884 17.476.006.215 151.982z"/>
        <path id="ujmws9d53cq" d="M.215 151.982l57.151 26.613-.005-1.514c-.012-4.456 3.12-9.883 6.999-12.122l76.356-44.084c1.951-1.126 3.72-1.231 4.995-.49l5.483 3.537-.015-.006c1.268.73 2.055 2.29 2.06 4.511l.252 87.738c.004 2.055-.663 4.314-1.76 6.374l23.352 10.874 19.62-109.23L138.309 4.884 17.476.006"/>
        <path id="3u2z6yxnycs" d="M.215 151.982l57.151 26.613-.005-1.514c-.012-4.456 3.12-9.883 6.999-12.122l76.356-44.084c1.951-1.126 3.72-1.231 4.995-.49l5.483 3.537-.015-.006c1.268.73 2.055 2.29 2.06 4.511l.252 87.738c.004 2.055-.663 4.314-1.76 6.374l23.352 10.874 19.62-109.23L138.309 4.884 17.476.006"/>
        <path id="9ueo14i7kcu" d="M.215 151.982l57.151 26.613-.005-1.514c-.012-4.456 3.12-9.883 6.999-12.122l76.356-44.084c1.951-1.126 3.72-1.231 4.995-.49l5.483 3.537-.015-.006c1.268.73 2.055 2.29 2.06 4.511l.252 87.738c.004 2.055-.663 4.314-1.76 6.374l23.352 10.874 19.62-109.23L138.309 4.884 17.476.006"/>
        <path id="37y294s7ucw" d="M.215 151.982l57.151 26.613-.005-1.514c-.012-4.456 3.12-9.883 6.999-12.122l76.356-44.084c1.951-1.126 3.72-1.231 4.995-.49l5.483 3.537-.015-.006c1.268.73 2.055 2.29 2.06 4.511l.252 87.738c.004 2.055-.663 4.314-1.76 6.374l23.352 10.874 19.62-109.23L138.309 4.884 17.476.006"/>
        <path id="weqm7s5i5cy" d="M.215 151.982l57.151 26.613-.005-1.514c-.012-4.456 3.12-9.883 6.999-12.122l76.356-44.084c1.951-1.126 3.72-1.231 4.995-.49l5.483 3.537-.015-.006c1.268.73 2.055 2.29 2.06 4.511l.252 87.738c.004 2.055-.663 4.314-1.76 6.374l23.352 10.874 19.62-109.23L138.309 4.884 17.476.006"/>
        <path id="6qfm95oivcA" d="M.215 151.982l57.151 26.613-.005-1.514c-.012-4.456 3.12-9.883 6.999-12.122l76.356-44.084c1.951-1.126 3.72-1.231 4.995-.49l5.483 3.537-.015-.006c1.268.73 2.055 2.29 2.06 4.511l.252 87.738c.004 2.055-.663 4.314-1.76 6.374l23.352 10.874 19.62-109.23L138.309 4.884 17.476.006"/>
        <path id="2lemcb4mhcC" d="M.215 151.982l57.151 26.613-.005-1.514c-.012-4.456 3.12-9.883 6.999-12.122l76.356-44.084c1.951-1.126 3.72-1.231 4.995-.49l5.483 3.537-.015-.006c1.268.73 2.055 2.29 2.06 4.511l.252 87.738c.004 2.055-.663 4.314-1.76 6.374l23.352 10.874 19.62-109.23L138.309 4.884 17.476.006"/>
    </defs>
    <g fill="none" fill-rule="evenodd">
        <g>
            <g>
                <g opacity=".048">
                    <path fill="#111" d="M343.572 208.058c-3.384-1.47-201.987-52.57-215.225-51.38-3.993.73-45.3 34.936-53.456 39.49-9.81 5.477-66.816 7.336-66.85 7.339-2.055 7.18-8.06 19.575-8.04 26.417.042 14.406 5.123 24.54 13.326 29.305l63.053 36.645c11.491 4.501 15.965 6.308 26.409.277l117.28-67.714 36.463 21.19 2.829 21.61c.005 2.24.794 3.812 2.07 4.554l7.848 4.787c-.063-.039 2.98.702 5.054-.495L357 231.155c9.414-9.27 1.384-21.418 1.374-25.925l-14.802 2.828z" transform="translate(-520 -3614) translate(520 3614) translate(0 31.8)"/>
                    <path fill="#88E0FF" d="M257.168 4.277c20.788 12.082 41.576 24.162 62.362 36.244-8.483-4.928-19.401-5.663-31.622-1.548L225.538 2.73c12.224-4.112 23.145-3.383 31.63 1.547" transform="translate(-520 -3614) translate(520 3614) translate(0 31.8)"/>
                </g>
                <g transform="translate(-520 -3614) translate(520 3614) translate(225.287 31.8)">
                    <mask id="1iahcsejpb" fill="#fff">
                        <use xlink:href="#wm87ukl5la"/>
                    </mask>
                    <path fill="#88E0FF" d="M62.62 38.973L.25 2.73C12.476-1.382 23.396-.653 31.882 4.277L94.242 40.52c-8.482-4.928-19.4-5.663-31.621-1.548" mask="url(#1iahcsejpb)"/>
                </g>
                <g transform="translate(-520 -3614) translate(520 3614) translate(90.23 .19)">
                    <mask id="7uw46kgftd" fill="#fff">
                        <use xlink:href="#el6js5ci2c"/>
                    </mask>
                    <path fill="#0090CF" d="M116.46 5.09C103.77-2.28 86.2-1.237 66.806 9.963 35.422 28.079 8.955 67.2.264 105.027l62.37 36.245c8.689-37.828 35.157-76.948 66.537-95.066 19.395-11.2 36.97-12.243 49.65-4.87L116.46 5.09" mask="url(#7uw46kgftd)"/>
                </g>
                <g transform="translate(-520 -3614) translate(520 3614) translate(44.828 104.788)">
                    <mask id="3wwjh6d45f" fill="#fff">
                        <use xlink:href="#qpp2xavaee"/>
                    </mask>
                    <path fill="#0090CF" d="M62.9 108.512L.535 72.267c3.028-27.461 22-58.241 45.131-71.838l62.37 36.245C84.904 50.271 65.928 81.051 62.9 108.512" mask="url(#3wwjh6d45f)"/>
                </g>
                <g transform="translate(-520 -3614) translate(520 3614) translate(2.299 176.627)">
                    <mask id="88uyeqcf2h" fill="#fff">
                        <use xlink:href="#9vkr4q86eg"/>
                    </mask>
                    <path fill="#0090CF" d="M76.09 142.057l-62.362-36.244C5.615 101.101.591 91.08.548 76.832.472 49.118 19.294 15.66 43.064.428l62.365 36.245c-23.773 15.23-42.596 48.69-42.51 76.405.038 14.244 5.065 24.268 13.171 28.979" mask="url(#88uyeqcf2h)"/>
                </g>
                <g>
                    <path fill="#4CD8FE" d="M154.566 9.999c33.666-19.442 61.833-8.281 68.508 24.377 28.375-9.55 49.749 7.019 49.844 41.631.114 39.68-27.768 87.975-62.297 107.909C184.15 199.198 68.11 266.2 45.702 279.139 20.747 293.547.459 281.982.382 253.307c-.085-27.714 18.737-61.174 42.51-76.404 3.03-27.461 22.005-58.24 45.137-71.837 8.69-37.829 35.157-76.948 66.537-95.067" transform="translate(-520 -3614) translate(520 3614) translate(64.943 36.397)"/>
                    <path fill="#13728C" d="M201.23 59.574c3.821-2.207 6.93-.435 6.94 3.957l.247 86.467c.01 4.393-3.075 9.74-6.897 11.946l-75.252 43.448c-3.822 2.206-6.929.435-6.941-3.957l-.246-86.47c-.012-4.39 3.075-9.739 6.896-11.945l75.253-43.446z" transform="translate(-520 -3614) translate(520 3614) translate(64.943 36.397)"/>
                    <path fill="#00586D" d="M179.721 67.399c3.821-2.208 6.93-.435 6.942 3.957l.138 93.094c.01 4.39-3.075 9.74-6.898 11.945L121.76 210.14c-3.822 2.206-6.928.434-6.942-3.958l-.138-93.094c-.012-4.392 3.076-9.74 6.897-11.946l58.144-33.743z" transform="translate(-520 -3614) translate(520 3614) translate(64.943 36.397)"/>
                    <path fill="#636363" d="M146.698 86.64c3.822-2.208 6.93-.437 6.941 3.955l.233 50.596c.011 4.391-3.074 9.739-6.896 11.946l-22.116 12.338c-3.822 2.207-6.929.438-6.942-3.954l-.233-50.597c-.011-4.392 3.076-9.74 6.897-11.947l22.116-12.338z" transform="translate(-520 -3614) translate(520 3614) translate(64.943 36.397)"/>
                    <path fill="#E2E2E2" d="M206.477 62.1c-.003-.883-.318-1.505-.82-1.798l-5.15-2.992c.505.292.82.915.822 1.8l.26 91.794c.003 1.78-1.256 3.959-2.802 4.85l-79.884 46.123c-.78.449-1.489.49-2 .195l5.15 2.989c.51.299 1.218.26 1.998-.193l79.886-46.121c1.546-.892 2.805-3.07 2.8-4.851l-.26-91.795z" transform="translate(-520 -3614) translate(520 3614) translate(64.943 36.397)"/>
                    <path fill="#AFAFAF" d="M206.737 153.895l-.26-91.794c-.006-1.783-1.276-2.498-2.82-1.606l-79.884 46.121c-1.55.896-2.806 3.07-2.801 4.852l.26 91.793c.005 1.783 1.268 2.503 2.819 1.607l79.886-46.122c1.545-.89 2.805-3.068 2.8-4.85zM203.63 50.08c6.545-3.78 11.892-.734 11.911 6.788l.26 91.795c.024 7.521-5.287 16.722-11.836 20.502l-79.884 46.12c-6.547 3.782-11.899.74-11.92-6.783l-.26-91.796c-.022-7.522 5.294-16.725 11.842-20.506l79.887-46.12z" transform="translate(-520 -3614) translate(520 3614) translate(64.943 36.397)"/>
                    <path fill="#E2E2E2" d="M206.926 46.266c-2.162-1.255-5.154-1.081-8.446.821l-79.885 46.121c-6.547 3.78-11.863 12.981-11.843 20.504l.261 91.795c.011 3.736 1.334 6.365 3.467 7.605l5.15 2.994c-2.133-1.24-3.46-3.871-3.47-7.606l-.26-91.795c-.02-7.522 5.295-16.725 11.843-20.505l79.887-46.121c3.293-1.902 6.284-2.076 8.442-.82l-5.146-2.993z" transform="translate(-520 -3614) translate(520 3614) translate(64.943 36.397)"/>
                </g>
                <g>
                    <g transform="translate(-520 -3614) translate(520 3614) translate(185.632 73.179)">
                        <mask id="4yoosrirej" fill="#fff">
                            <use xlink:href="#2lwy5xaqri"/>
                        </mask>
                        <path fill="#AFAFAF" d="M162.998 137.214L34.062 62.285c.245.142.583.123.953-.091l128.932 74.928c-.37.211-.707.233-.95.092" mask="url(#4yoosrirej)"/>
                    </g>
                    <g transform="translate(-520 -3614) translate(520 3614) translate(185.632 73.179)">
                        <mask id="jrkejp2a5l" fill="#fff">
                            <use xlink:href="#jdpnerd6fk"/>
                        </mask>
                        <path fill="#AFAFAF" d="M163.94 134.05L35.005 59.12c.376-.216.715-.236.959-.096l128.934 74.93c-.244-.143-.585-.122-.96.095" mask="url(#jrkejp2a5l)"/>
                    </g>
                    <g transform="translate(-520 -3614) translate(520 3614) translate(185.632 73.179)">
                        <mask id="ohntu4tikn" fill="#fff">
                            <use xlink:href="#axcmtuob4m"/>
                        </mask>
                        <path fill="#AFAFAF" d="M162.998 137.214L34.062 62.285c-.239-.14-.387-.435-.389-.854-.003-.854.598-1.886 1.333-2.311l128.933 74.93c-.738.423-1.336 1.454-1.333 2.307 0 .42.146.716.392.857" mask="url(#ohntu4tikn)"/>
                    </g>
                    <g transform="translate(-520 -3614) translate(520 3614) translate(185.632 73.179)">
                        <mask id="ji37ejcssp" fill="#fff">
                            <use xlink:href="#l8wszen6do"/>
                        </mask>
                        <path fill="#767676" d="M163.94 134.05c.736-.43 1.347-.093 1.35.758 0 .846-.602 1.885-1.343 2.314-.734.426-1.34.08-1.34-.765-.004-.853.595-1.884 1.332-2.308" mask="url(#ji37ejcssp)"/>
                    </g>
                    <g transform="translate(-520 -3614) translate(520 3614) translate(185.632 73.179)">
                        <mask id="lq1z0bqylr" fill="#fff">
                            <use xlink:href="#cm9791uvqq"/>
                        </mask>
                        <path fill="#AFAFAF" d="M163.922 127.338L34.987 52.41c.377-.215.715-.237.958-.094l128.93 74.926c-.239-.14-.58-.119-.953.097" mask="url(#lq1z0bqylr)"/>
                    </g>
                    <g transform="translate(-520 -3614) translate(520 3614) translate(185.632 73.179)">
                        <mask id="wzen7jnjdt" fill="#fff">
                            <use xlink:href="#s1q258vixs"/>
                        </mask>
                        <path fill="#AFAFAF" d="M162.982 130.502L34.046 55.576c-.24-.14-.39-.436-.394-.856 0-.853.6-1.886 1.335-2.31l128.935 74.928c-.74.425-1.335 1.457-1.335 2.31 0 .42.151.716.395.854" mask="url(#wzen7jnjdt)"/>
                    </g>
                    <g transform="translate(-520 -3614) translate(520 3614) translate(185.632 73.179)">
                        <mask id="1ir4qryfxv" fill="#fff">
                            <use xlink:href="#f235fuf8vu"/>
                        </mask>
                        <path fill="#767676" d="M163.922 127.338c.736-.428 1.34-.09 1.347.761.003.846-.596 1.886-1.342 2.312-.735.427-1.34.082-1.34-.763 0-.853.594-1.885 1.335-2.31" mask="url(#1ir4qryfxv)"/>
                    </g>
                    <g transform="translate(-520 -3614) translate(520 3614) translate(185.632 73.179)">
                        <mask id="ysrdx9zzax" fill="#fff">
                            <use xlink:href="#cme0myd3tw"/>
                        </mask>
                        <path fill="#AFAFAF" d="M161.953 120.972L33.022 46.045c.541-.313 1.03-.342 1.383-.137l128.933 74.928c-.354-.206-.843-.177-1.385.136" mask="url(#ysrdx9zzax)"/>
                    </g>
                    <g transform="translate(-520 -3614) translate(520 3614) translate(185.632 73.179)">
                        <mask id="l7448oyifz" fill="#fff">
                            <use xlink:href="#i6zbubiqay"/>
                        </mask>
                        <path fill="#AFAFAF" d="M160.011 124.33L31.084 49.402c-.004-1.233.864-2.736 1.938-3.357l128.931 74.927c-1.074.618-1.943 2.124-1.942 3.358" mask="url(#l7448oyifz)"/>
                    </g>
                    <g transform="translate(-520 -3614) translate(520 3614) translate(185.632 73.179)">
                        <mask id="alxm1gpatB" fill="#fff">
                            <use xlink:href="#2whnjexfmA"/>
                        </mask>
                        <path fill="#919191" d="M160.011 124.33L31.084 49.402l.092 32.305c.008 3.429-2.413 7.621-5.396 9.344l-57.402 33.17c-1.502.863-2.866.943-3.85.372l128.933 74.93c.984.569 2.349.49 3.85-.376l57.403-33.167c2.984-1.723 5.406-5.917 5.395-9.346l-.098-32.304z" mask="url(#alxm1gpatB)"/>
                    </g>
                    <g transform="translate(-520 -3614) translate(520 3614) translate(185.632 73.179)">
                        <mask id="cdykqvgboD" fill="#fff">
                            <use xlink:href="#b1wugbje5C"/>
                        </mask>
                        <path fill="#C6C6C6" d="M87.988 198.298l-.048-17.269-128.932-74.926.048 17.265c.008 2.933 1.047 5 2.72 5.971l128.932 74.927c-1.67-.97-2.712-3.037-2.72-5.968" mask="url(#cdykqvgboD)"/>
                    </g>
                    <g transform="translate(-520 -3614) translate(520 3614) translate(185.632 73.179)">
                        <mask id="7cleipvo4F" fill="#fff">
                            <use xlink:href="#nvc7gwrh6E"/>
                        </mask>
                        <path fill="#AFAFAF" d="M87.94 181.03l-128.932-74.927c.736-.423 1.334-1.463 1.333-2.309-.002-.421-.15-.718-.39-.858l128.934 74.928c.238.139.389.436.389.858.002.845-.598 1.888-1.334 2.307" mask="url(#7cleipvo4F)"/>
                    </g>
                    <g transform="translate(-520 -3614) translate(520 3614) translate(185.632 73.179)">
                        <mask id="osj6n3hjkH" fill="#fff">
                            <use xlink:href="#iq5lngppfG"/>
                        </mask>
                        <path fill="#AFAFAF" d="M87.932 177.957L-41.001 103.03c.372-.213.708-.234.952-.093l128.934 74.928c-.243-.141-.583-.12-.953.093" mask="url(#osj6n3hjkH)"/>
                    </g>
                    <g transform="translate(-520 -3614) translate(520 3614) translate(185.632 73.179)">
                        <mask id="cr1i5h17dJ" fill="#fff">
                            <use xlink:href="#4xtx5p2kfI"/>
                        </mask>
                        <path fill="#DDD" d="M86.986 181.124L-41.95 106.198c-.239-.14-.39-.435-.39-.854-.002-.855.599-1.887 1.339-2.315l128.933 74.928c-.74.43-1.34 1.46-1.34 2.31.002.421.153.72.394.857" mask="url(#cr1i5h17dJ)"/>
                    </g>
                    <g transform="translate(-520 -3614) translate(520 3614) translate(185.632 73.179)">
                        <mask id="fgmzw6qpcL" fill="#fff">
                            <use xlink:href="#0pdxem8k8K"/>
                        </mask>
                        <path fill="#767676" d="M87.932 177.957c.739-.424 1.341-.087 1.342.765.002.845-.598 1.887-1.334 2.307-.742.43-1.346.086-1.348-.761 0-.85.6-1.881 1.34-2.31" mask="url(#fgmzw6qpcL)"/>
                    </g>
                    <g transform="translate(-520 -3614) translate(520 3614) translate(185.632 73.179)">
                        <mask id="0tt2w31b1N" fill="#fff">
                            <use xlink:href="#y1pdyw104M"/>
                        </mask>
                        <path fill="#C6C6C6" d="M87.932 177.957L-41.001 103.029 -41.011 99.393 87.921 174.32z" mask="url(#0tt2w31b1N)"/>
                    </g>
                    <g transform="translate(-520 -3614) translate(520 3614) translate(185.632 73.179)">
                        <mask id="i5oxslmz6P" fill="#fff">
                            <use xlink:href="#ujuciaogwO"/>
                        </mask>
                        <path fill="#AFAFAF" d="M87.921 174.32L-41.012 99.392c.736-.425 1.336-1.462 1.334-2.308-.002-.424-.152-.717-.391-.856l128.935 74.927c.24.14.386.432.39.857.001.845-.597 1.882-1.335 2.308" mask="url(#i5oxslmz6P)"/>
                    </g>
                    <g transform="translate(-520 -3614) translate(520 3614) translate(185.632 73.179)">
                        <mask id="o1o4av1caR" fill="#fff">
                            <use xlink:href="#7ugul7byrQ"/>
                        </mask>
                        <path fill="#AFAFAF" d="M87.913 171.247L-41.02 96.32c.372-.216.708-.235.95-.092l128.934 74.927c-.245-.142-.581-.121-.952.092" mask="url(#o1o4av1caR)"/>
                    </g>
                    <g transform="translate(-520 -3614) translate(520 3614) translate(185.632 73.179)">
                        <mask id="sfwrea09tT" fill="#fff">
                            <use xlink:href="#yuychh5nnS"/>
                        </mask>
                        <path fill="#DDD" d="M86.964 174.414L-41.968 99.486c-.24-.138-.39-.434-.39-.854-.003-.853.596-1.885 1.339-2.312l128.931 74.927c-.74.427-1.34 1.46-1.336 2.313 0 .42.148.714.388.854" mask="url(#sfwrea09tT)"/>
                    </g>
                    <g transform="translate(-520 -3614) translate(520 3614) translate(185.632 73.179)">
                        <mask id="v2e4ahrcwV" fill="#fff">
                            <use xlink:href="#ki73dmb45U"/>
                        </mask>
                        <path fill="#767676" d="M87.913 171.247c.736-.427 1.34-.088 1.343.765.001.845-.596 1.882-1.335 2.308-.741.43-1.343.084-1.345-.76-.004-.852.597-1.886 1.337-2.313" mask="url(#v2e4ahrcwV)"/>
                    </g>
                    <g transform="translate(-520 -3614) translate(520 3614) translate(185.632 73.179)">
                        <mask id="ij7fyiq2iX" fill="#fff">
                            <use xlink:href="#7det1y1afW"/>
                        </mask>
                        <path fill="#C6C6C6" d="M87.913 171.247L-41.019 96.32 -41.035 91.065 87.896 165.996z" mask="url(#ij7fyiq2iX)"/>
                    </g>
                    <g transform="translate(-520 -3614) translate(520 3614) translate(185.632 73.179)">
                        <mask id="i1nummb40Z" fill="#fff">
                            <use xlink:href="#zqynuii19Y"/>
                        </mask>
                        <path fill="#DDD" d="M87.896 165.996l-128.93-74.931c-.004-1.236.863-2.736 1.938-3.357.54-.313 1.028-.343 1.384-.135L91.22 162.499c-.353-.205-.844-.176-1.387.137-1.072.622-1.94 2.12-1.938 3.36" mask="url(#i1nummb40Z)"/>
                    </g>
                    <g transform="translate(-520 -3614) translate(520 3614) translate(185.632 73.179)">
                        <mask id="yvp3oyszqab" fill="#fff">
                            <use xlink:href="#htwrp5w49aa"/>
                        </mask>
                        <path fill="#767676" d="M161.953 120.972c1.073-.62 1.947-.124 1.951 1.11l.018 5.256c-.74.425-1.335 1.457-1.335 2.31 0 .845.605 1.19 1.34.763l.012 3.638c-.737.424-1.336 1.455-1.333 2.308 0 .845.607 1.19 1.341.765l.049 17.266c.016 5.9-4.138 13.105-9.272 16.068l-57.401 33.167c-5.133 2.966-9.315.573-9.335-5.325l-.048-17.269c.736-.42 1.336-1.462 1.334-2.307-.001-.853-.603-1.189-1.342-.765l-.01-3.637c.738-.426 1.335-1.463 1.334-2.308-.004-.853-.607-1.192-1.343-.765l-.017-5.251c-.002-1.24.866-2.738 1.938-3.36 1.077-.621 1.951-.124 1.954 1.109l.092 32.307c.008 3.428 2.444 4.817 5.43 3.095l57.404-33.167c2.984-1.723 5.406-5.917 5.395-9.346l-.098-32.304c0-1.235.868-2.74 1.942-3.358" mask="url(#yvp3oyszqab)"/>
                    </g>
                </g>
                <g>
                    <g transform="translate(-520 -3614) translate(520 3614) translate(185.632 100.19)">
                        <mask id="kxtazngg0ad" fill="#fff">
                            <use xlink:href="#yfe8y63hdac"/>
                        </mask>
                        <path fill="#D3801E" d="M-9.452 66.294l65.84-38.261-.162 37.03c-.015 4.908 3.445 10.887 7.705 13.343 2.15 1.242 4.095 1.357 5.502.54L3.592 117.207c-1.405.818-3.352.702-5.498-.54-4.262-2.459-7.721-8.437-7.707-13.344l.16-37.03z" mask="url(#kxtazngg0ad)"/>
                    </g>
                    <g transform="translate(-520 -3614) translate(520 3614) translate(185.632 100.19)">
                        <mask id="a7avucuy5af" fill="#fff">
                            <use xlink:href="#djfs3pbg0ae"/>
                        </mask>
                        <path fill="#EFD1B1" d="M49.403 33.191L50.768 34.008 -1.406 64.238 -1.259 115.912 -2.621 115.095 -2.77 63.418z" mask="url(#a7avucuy5af)"/>
                    </g>
                    <g transform="translate(-520 -3614) translate(520 3614) translate(185.632 100.19)">
                        <mask id="jw5nzi1dwah" fill="#fff">
                            <use xlink:href="#24e33ecylag"/>
                        </mask>
                        <path fill="#FFEACF" d="M-1.406 64.238L-1.259 115.911 50.912 85.684 50.769 34.009z" mask="url(#jw5nzi1dwah)"/>
                    </g>
                    <g transform="translate(-520 -3614) translate(520 3614) translate(185.632 100.19)">
                        <mask id="uu83sk0v7aj" fill="#fff">
                            <use xlink:href="#x8qfsbg29ai"/>
                        </mask>
                        <path fill="#C9BEB5" d="M60.052 31.077L61.27 31.91 9.097 62.139 9.244 113.815 8.025 112.981 7.88 61.308z" mask="url(#uu83sk0v7aj)"/>
                    </g>
                    <g transform="translate(-520 -3614) translate(520 3614) translate(185.632 100.19)">
                        <mask id="fj2m4ba1oal" fill="#fff">
                            <use xlink:href="#8jcwom7mdak"/>
                        </mask>
                        <path fill="#E2D8CF" d="M9.097 62.139L9.244 113.815 61.416 83.585 61.27 31.91z" mask="url(#fj2m4ba1oal)"/>
                    </g>
                    <g transform="translate(-520 -3614) translate(520 3614) translate(185.632 100.19)">
                        <mask id="5o98a7whsan" fill="#fff">
                            <use xlink:href="#tomucrw6yam"/>
                        </mask>
                        <path fill="#EFD1B1" d="M56.553 37.854L57.917 38.671 5.745 68.9 5.89 119.644 4.528 118.825 4.382 68.082z" mask="url(#5o98a7whsan)"/>
                    </g>
                    <g transform="translate(-520 -3614) translate(520 3614) translate(185.632 100.19)">
                        <mask id="2l2uu8ku4ap" fill="#fff">
                            <use xlink:href="#tcsdkkybyao"/>
                        </mask>
                        <path fill="#FFEACF" d="M5.745 68.9L5.89 119.644 58.062 89.413 57.917 38.671z" mask="url(#2l2uu8ku4ap)"/>
                    </g>
                    <g transform="translate(-520 -3614) translate(520 3614) translate(185.632 100.19)">
                        <mask id="l9ucyqoi6ar" fill="#fff">
                            <use xlink:href="#1df3sojfpaq"/>
                        </mask>
                        <path fill="#FFC271" d="M-11.287 63.819c-.056-.007-.098.022-.149.028.05-.006.093-.035.15-.028zm-.975 37.977c-.018 6.578 4.62 14.625 10.345 17.929 5.725 3.305 10.405.64 10.422-5.94l.16-36.524 65.838-38.262c.006-.85-.59-1.878-1.33-2.306-.364-.21-.697-.23-.937-.09L6.4 74.863l-.001.003c-.241.141-.39.436-.391.86l-.16 36.524c-.015 4.907-3.485 6.885-7.753 4.418-4.262-2.459-7.721-8.438-7.707-13.345l.16-37.028 65.84-38.262c.001-.853-.592-1.882-1.32-2.302-.362-.21-.696-.23-.938-.089l-65.838 38.26c-.241.14-.39.44-.392.863l-.16 37.03z" mask="url(#l9ucyqoi6ar)"/>
                    </g>
                    <g transform="translate(-520 -3614) translate(520 3614) translate(185.632 100.19)">
                        <mask id="jls297lnqat" fill="#fff">
                            <use xlink:href="#vpk1jnhcwas"/>
                        </mask>
                        <path fill="#F2AB44" d="M8.505 113.785l.16-36.525L74.503 39l-.158 36.525c-.009 3.266-1.166 5.57-3.034 6.655L5.47 120.442c1.868-1.084 3.026-3.389 3.034-6.657" mask="url(#jls297lnqat)"/>
                    </g>
                    <g transform="translate(-520 -3614) translate(520 3614) translate(185.632 100.19)">
                        <mask id="hy7phzbxwav" fill="#fff">
                            <use xlink:href="#gxreipg7jau"/>
                        </mask>
                        <path fill="#FFC271" d="M-6.832 59.102c.023-.113.047-.225.076-.34.123-.478.278-.959.485-1.43 0-.004.001-.007.004-.012.011-.025.028-.047.038-.071.178-.392.384-.773.611-1.144.073-.117.147-.227.223-.34.196-.293.405-.57.625-.836.054-.063.095-.14.151-.2.03-.035.063-.062.095-.095.185-.204.38-.388.578-.572.091-.082.178-.173.274-.254.296-.248.602-.47.923-.654l9.803-5.661c1.19-.688 2.264-.75 3.043-.297l2.632 1.528c-.776-.452-1.85-.386-3.04.299l-9.806 5.662c-.317.184-.624.406-.923.654-.095.079-.182.172-.276.258-.196.18-.391.365-.573.568-.086.093-.165.195-.249.295-.219.267-.428.545-.624.835-.074.113-.15.226-.223.343-.225.367-.432.746-.608 1.139-.015.028-.032.057-.045.087-.206.469-.36.948-.483 1.426-.03.116-.055.231-.08.344-.103.483-.173.963-.171 1.424l.004 1.438-2.634-1.528-.004-1.441c0-.461.07-.941.174-1.425" mask="url(#hy7phzbxwav)"/>
                    </g>
                    <g transform="translate(-520 -3614) translate(520 3614) translate(185.632 100.19)">
                        <mask id="aaw54a61zax" fill="#fff">
                            <use xlink:href="#wvk0tnjj4aw"/>
                        </mask>
                        <path fill="#D3801E" d="M-.117 54.685c-2.361 1.364-4.263 4.66-4.255 7.372l.004 1.438 18.343-10.59-.001-1.44c-.007-2.713-1.922-3.804-4.285-2.442l-9.806 5.662z" mask="url(#aaw54a61zax)"/>
                    </g>
                    <g transform="translate(-520 -3614) translate(520 3614) translate(185.632 100.19)">
                        <mask id="plh8raj3oaz" fill="#fff">
                            <use xlink:href="#yyl4dpglaay"/>
                        </mask>
                        <path fill="#D52737" d="M25.844 78.442l65.82-38.296-.141 37.03c-.013 4.91 3.454 10.886 7.714 13.342 2.148 1.24 4.094 1.354 5.497.535l-65.819 38.298c-1.404.817-3.35.702-5.499-.539-4.26-2.452-7.723-8.431-7.712-13.337l.14-37.033z" mask="url(#plh8raj3oaz)"/>
                    </g>
                    <g transform="translate(-520 -3614) translate(520 3614) translate(185.632 100.19)">
                        <mask id="ib4u8g5n8aB" fill="#fff">
                            <use xlink:href="#zxryvzwfraA"/>
                        </mask>
                        <path fill="#EFD1B1" d="M84.685 45.311L86.047 46.126 33.889 76.382 34.064 128.057 32.701 127.237 32.527 75.565z" mask="url(#ib4u8g5n8aB)"/>
                    </g>
                    <g transform="translate(-520 -3614) translate(520 3614) translate(185.632 100.19)">
                        <mask id="l468rh9u4aD" fill="#fff">
                            <use xlink:href="#xmsz6kh1raC"/>
                        </mask>
                        <path fill="#FFEACF" d="M33.89 76.382L34.064 128.057 86.222 97.801 86.048 46.126z" mask="url(#l468rh9u4aD)"/>
                    </g>
                    <g transform="translate(-520 -3614) translate(520 3614) translate(185.632 100.19)">
                        <mask id="qol1xosboaF" fill="#fff">
                            <use xlink:href="#6rsy8djl0aE"/>
                        </mask>
                        <path fill="#C9BEB5" d="M95.333 43.191L96.55 44.024 44.39 74.279 44.565 125.955 43.348 125.122 43.174 73.447z" mask="url(#qol1xosboaF)"/>
                    </g>
                    <g transform="translate(-520 -3614) translate(520 3614) translate(185.632 100.19)">
                        <mask id="hqxklassdaH" fill="#fff">
                            <use xlink:href="#z1e1atmdiaG"/>
                        </mask>
                        <path fill="#E2D8CF" d="M44.39 74.279L44.565 125.955 96.721 95.698 96.55 44.023z" mask="url(#hqxklassdaH)"/>
                    </g>
                    <g transform="translate(-520 -3614) translate(520 3614) translate(185.632 100.19)">
                        <mask id="dco4ev9kaaJ" fill="#fff">
                            <use xlink:href="#5b6re3vopaI"/>
                        </mask>
                        <path fill="#EFD1B1" d="M91.839 49.968L93.2 50.786 41.042 81.041 41.217 131.785 39.852 130.965 39.682 80.224z" mask="url(#dco4ev9kaaJ)"/>
                    </g>
                    <g transform="translate(-520 -3614) translate(520 3614) translate(185.632 100.19)">
                        <mask id="fr3lwpan9aL" fill="#fff">
                            <use xlink:href="#vqw7x8d9vaK"/>
                        </mask>
                        <path fill="#FFEACF" d="M41.043 81.041L41.217 131.785 93.374 101.527 93.2 50.786z" mask="url(#fr3lwpan9aL)"/>
                    </g>
                    <g transform="translate(-520 -3614) translate(520 3614) translate(185.632 100.19)">
                        <mask id="ogaub4qveaN" fill="#fff">
                            <use xlink:href="#dkxh2k7v2aM"/>
                        </mask>
                        <path fill="#FF777F" d="M24.01 75.968c-.057-.005-.1.023-.149.031.05-.008.092-.036.149-.03zm-.956 37.98c-.014 6.576 4.627 14.622 10.355 17.922 5.726 3.304 10.402.634 10.42-5.944l.14-36.525 65.816-38.295c.003-.852-.59-1.88-1.329-2.306-.365-.211-.7-.23-.937-.09L41.7 87.003c0 .002-.004.002-.004.002-.241.14-.39.438-.39.862l-.139 36.522c-.013 4.907-3.48 6.886-7.752 4.422-4.26-2.452-7.723-8.431-7.712-13.337l.14-37.032 65.82-38.296c.003-.851-.592-1.881-1.317-2.3-.37-.209-.701-.23-.942-.088l-65.82 38.296c-.24.138-.388.436-.389.86l-.142 37.032z" mask="url(#ogaub4qveaN)"/>
                    </g>
                    <g transform="translate(-520 -3614) translate(520 3614) translate(185.632 100.19)">
                        <mask id="fg6fqffroaP" fill="#fff">
                            <use xlink:href="#0cic1oupdaO"/>
                        </mask>
                        <path fill="#F34B52" d="M43.829 125.926l.14-36.525 65.816-38.295-.137 36.522c-.007 3.27-1.167 5.574-3.03 6.658l-65.82 38.297c1.866-1.088 3.022-3.39 3.03-6.657" mask="url(#fg6fqffroaP)"/>
                    </g>
                    <g transform="translate(-520 -3614) translate(520 3614) translate(185.632 100.19)">
                        <mask id="scnzmv47paR" fill="#fff">
                            <use xlink:href="#umlqneb43aQ"/>
                        </mask>
                        <path fill="#FF777F" d="M28.46 71.25c.024-.113.048-.225.079-.338.122-.48.275-.961.484-1.43 0-.007 0-.01.003-.015.011-.026.028-.047.041-.071.174-.391.38-.772.607-1.143.073-.117.148-.227.223-.343.195-.29.407-.567.625-.835.052-.065.096-.14.152-.2.03-.036.064-.06.094-.095.183-.205.38-.389.575-.57.094-.085.18-.174.275-.255.297-.25.606-.472.92-.654l9.803-5.667c1.19-.687 2.265-.753 3.044-.298l2.63 1.526c-.775-.451-1.848-.385-3.038.3l-9.803 5.666c-.317.186-.624.408-.92.657-.098.076-.184.17-.277.258-.198.18-.392.363-.575.566-.085.095-.164.199-.247.297-.22.267-.426.544-.624.834-.075.116-.152.226-.223.342-.225.369-.432.75-.608 1.14l-.045.087c-.205.469-.359.95-.48 1.428-.03.115-.057.23-.082.346-.1.48-.173.961-.173 1.421l.009 1.437-2.636-1.527-.005-1.44c0-.46.07-.94.172-1.424" mask="url(#scnzmv47paR)"/>
                    </g>
                    <g transform="translate(-520 -3614) translate(520 3614) translate(185.632 100.19)">
                        <mask id="bdip75tjsaT" fill="#fff">
                            <use xlink:href="#fpyuzp9c5aS"/>
                        </mask>
                        <path fill="#D52737" d="M35.174 66.828c-2.361 1.367-4.262 4.663-4.253 7.376l.007 1.437 18.338-10.599-.002-1.441c-.008-2.712-1.924-3.803-4.286-2.438l-9.804 5.665z" mask="url(#bdip75tjsaT)"/>
                    </g>
                    <g transform="translate(-520 -3614) translate(520 3614) translate(185.632 100.19)">
                        <mask id="be429yuxmaV" fill="#fff">
                            <use xlink:href="#0tk41whd1aU"/>
                        </mask>
                        <path fill="#0BB55F" d="M48.965 97.55l65.84-38.262-.16 37.03c-.018 4.908 3.444 10.887 7.703 13.344 2.15 1.241 4.097 1.357 5.502.54l-65.84 38.26c-1.404.819-3.352.705-5.5-.54-4.26-2.457-7.721-8.436-7.706-13.343l.161-37.03z" mask="url(#be429yuxmaV)"/>
                    </g>
                    <g transform="translate(-520 -3614) translate(520 3614) translate(185.632 100.19)">
                        <mask id="ygyhageevaX" fill="#fff">
                            <use xlink:href="#3exj5happaW"/>
                        </mask>
                        <path fill="#EFD1B1" d="M107.821 64.446L109.185 65.265 57.013 95.491 57.158 147.168 55.798 146.35 55.649 94.676z" mask="url(#ygyhageevaX)"/>
                    </g>
                    <g transform="translate(-520 -3614) translate(520 3614) translate(185.632 100.19)">
                        <mask id="rn7amfcygaZ" fill="#fff">
                            <use xlink:href="#q1w2lvcf6aY"/>
                        </mask>
                        <path fill="#FFEACF" d="M57.013 95.491L57.158 147.168 109.328 116.94 109.185 65.264z" mask="url(#rn7amfcygaZ)"/>
                    </g>
                    <g transform="translate(-520 -3614) translate(520 3614) translate(185.632 100.19)">
                        <mask id="e9dg3bmbabb" fill="#fff">
                            <use xlink:href="#rkm1h34rgba"/>
                        </mask>
                        <path fill="#C9BEB5" d="M118.472 62.333L119.688 63.165 67.514 93.395 67.661 145.069 66.445 144.238 66.298 92.562z" mask="url(#e9dg3bmbabb)"/>
                    </g>
                    <g transform="translate(-520 -3614) translate(520 3614) translate(185.632 100.19)">
                        <mask id="uttts1sscbd" fill="#fff">
                            <use xlink:href="#x40pepr79bc"/>
                        </mask>
                        <path fill="#E2D8CF" d="M67.514 93.394L67.661 145.069 119.833 114.843 119.688 63.165z" mask="url(#uttts1sscbd)"/>
                    </g>
                    <g transform="translate(-520 -3614) translate(520 3614) translate(185.632 100.19)">
                        <mask id="217uhn7zqbf" fill="#fff">
                            <use xlink:href="#iyzbobrr0be"/>
                        </mask>
                        <path fill="#EFD1B1" d="M114.974 69.11L116.332 69.927 64.163 100.156 64.308 150.898 62.946 150.08 62.802 99.338z" mask="url(#217uhn7zqbf)"/>
                    </g>
                    <g transform="translate(-520 -3614) translate(520 3614) translate(185.632 100.19)">
                        <mask id="f01x4s9k0bh" fill="#fff">
                            <use xlink:href="#zx6t6ntrqbg"/>
                        </mask>
                        <path fill="#FFEACF" d="M64.163 100.156L64.308 150.898 116.479 120.671 116.332 69.927z" mask="url(#f01x4s9k0bh)"/>
                    </g>
                    <g transform="translate(-520 -3614) translate(520 3614) translate(185.632 100.19)">
                        <mask id="oed6w34x5bj" fill="#fff">
                            <use xlink:href="#1vo3mt1zvbi"/>
                        </mask>
                        <path fill="#50D696" d="M47.13 95.073c-.055-.008-.098.027-.148.03.05-.003.093-.038.147-.03zm-.973 37.978c-.02 6.577 4.618 14.625 10.344 17.93 5.725 3.306 10.404.638 10.423-5.94l.161-36.525 65.834-38.262c.002-.85-.587-1.878-1.324-2.304-.371-.212-.703-.232-.937-.092l-65.843 38.26c0 .003-.002.003-.002.003-.24.14-.389.435-.389.862l-.16 36.522c-.014 4.907-3.485 6.885-7.755 4.418-4.26-2.457-7.72-8.437-7.706-13.344l.162-37.029 65.84-38.262c.004-.852-.593-1.88-1.318-2.301-.367-.21-.7-.23-.941-.09l-65.838 38.26c-.24.14-.39.44-.393.863l-.158 37.03z" mask="url(#oed6w34x5bj)"/>
                    </g>
                    <g transform="translate(-520 -3614) translate(520 3614) translate(185.632 100.19)">
                        <mask id="wo6yv1tehbl" fill="#fff">
                            <use xlink:href="#nz6qcpjpobk"/>
                        </mask>
                        <path fill="#2ACE83" d="M66.924 145.041l.16-36.525 65.835-38.262-.158 36.524c-.006 3.27-1.166 5.573-3.033 6.656L63.89 151.696c1.867-1.084 3.025-3.387 3.034-6.655" mask="url(#wo6yv1tehbl)"/>
                    </g>
                    <g transform="translate(-520 -3614) translate(520 3614) translate(185.632 100.19)">
                        <mask id="872pjmnrfbn" fill="#fff">
                            <use xlink:href="#y3491um9vbm"/>
                        </mask>
                        <path fill="#50D696" d="M51.585 90.358c.025-.114.047-.225.078-.34.122-.477.275-.96.483-1.43 0-.006.002-.007.005-.011.01-.026.029-.05.04-.072.175-.393.383-.774.608-1.143.074-.118.147-.228.224-.342.194-.29.405-.57.626-.836.053-.064.096-.14.15-.2.029-.036.065-.06.096-.095.184-.203.38-.388.577-.57.093-.083.177-.176.271-.255.3-.249.607-.471.925-.655l9.803-5.661c1.19-.687 2.263-.75 3.045-.299l2.632 1.531c-.777-.453-1.853-.386-3.042.3L58.3 85.94c-.316.183-.622.407-.92.656-.095.077-.183.17-.276.257-.196.18-.392.364-.574.566-.084.095-.165.199-.25.297-.221.265-.427.544-.623.835-.075.114-.152.224-.223.342-.228.368-.432.746-.608 1.14-.016.03-.032.056-.047.086-.206.47-.358.95-.482 1.427-.03.116-.054.23-.08.346-.102.48-.171.96-.17 1.42l.002 1.44-2.633-1.531-.004-1.44c-.001-.46.071-.94.174-1.423" mask="url(#872pjmnrfbn)"/>
                    </g>
                    <g transform="translate(-520 -3614) translate(520 3614) translate(185.632 100.19)">
                        <mask id="5avnewsegbp" fill="#fff">
                            <use xlink:href="#4dknhxc14bo"/>
                        </mask>
                        <path fill="#0BB55F" d="M58.3 85.941c-2.36 1.363-4.262 4.66-4.254 7.371l.003 1.44L72.393 84.16l-.002-1.44c-.007-2.713-1.922-3.804-4.285-2.44l-9.807 5.661z" mask="url(#5avnewsegbp)"/>
                    </g>
                </g>
                <g>
                    <g transform="translate(-520 -3614) translate(520 3614) translate(185.632 73.179)">
                        <mask id="mx5n1kf4nbr" fill="#fff">
                            <use xlink:href="#ym1v5dfawbq"/>
                        </mask>
                        <path fill="#60D4F4" d="M165.251 80.73c-1.274-.742-3.043-.636-4.995.49L83.9 125.304c-3.879 2.239-7.01 7.666-6.999 12.121l.25 87.737c.007 2.215.786 3.768 2.046 4.504l5.482 3.538c-1.258-.734-2.042-2.292-2.046-4.507l-.249-87.734c-.014-4.458 3.12-9.884 6.998-12.121l76.356-44.083c1.953-1.13 3.72-1.234 4.997-.492l-5.484-3.536z" mask="url(#mx5n1kf4nbr)"/>
                    </g>
                    <g transform="translate(-520 -3614) translate(520 3614) translate(185.632 73.179)">
                        <mask id="b2mze2l0mbt" fill="#fff">
                            <use xlink:href="#mbap5rz1tbs"/>
                        </mask>
                        <path fill="#009EC9" d="M165.738 84.759c3.878-2.24 7.03-.443 7.042 4.013l.251 87.737c.011 4.457-3.12 9.884-6.997 12.123l-76.358 44.08c-3.88 2.24-7.03.443-7.043-4.015l-.25-87.734c-.014-4.458 3.121-9.883 7-12.122l76.355-44.082z" mask="url(#b2mze2l0mbt)"/>
                    </g>
                </g>
                <g>
                    <path fill="#88E0FF" d="M12.259 61.381c-1.304-.759-3.109-.65-5.1.5C3.198 64.17-.006 69.713.006 74.267c.007 2.26.805 3.852 2.092 4.598l2.227 1.27c-1.288-.749-2.086-2.339-2.092-4.6-.014-4.554 3.189-10.1 7.151-12.385 1.992-1.152 3.798-1.256 5.102-.501l-2.227-1.268z" transform="translate(-520 -3614) translate(520 3614) translate(293.678 195.593)"/>
                    <path fill="#00AFD8" d="M9.384 63.15c3.96-2.285 7.181-.45 7.194 4.105.013 4.55-3.185 10.09-7.147 12.38-3.961 2.285-7.187.453-7.198-4.1-.014-4.554 3.189-10.1 7.151-12.385" transform="translate(-520 -3614) translate(520 3614) translate(293.678 195.593)"/>
                    <path fill="#BCBCBC" d="M13.133 65.558c-.838-.487-2.001-.418-3.283.322-2.548 1.47-4.608 5.038-4.6 7.97.004 1.451.518 2.474 1.346 2.956l1.28.724c-.83-.485-1.343-1.506-1.348-2.96-.006-2.93 2.054-6.498 4.602-7.968 1.282-.74 2.444-.808 3.282-.32l-1.28-.724z" transform="translate(-520 -3614) translate(520 3614) translate(293.678 195.593)"/>
                    <path fill="#DDD" d="M11.13 66.602c2.548-1.471 4.619-.29 4.628 2.639.007 2.928-2.05 6.495-4.599 7.967-2.548 1.47-4.621.29-4.631-2.638-.007-2.93 2.054-6.497 4.601-7.968" transform="translate(-520 -3614) translate(520 3614) translate(293.678 195.593)"/>
                    <path fill="#E3FBFF" d="M2.233 75.535c-.014-4.554 3.19-10.1 7.15-12.385 1.787-1.03 3.42-1.217 4.678-.7-1.33-1.248-3.432-1.345-5.803.013-4.009 2.296-7.25 7.868-7.239 12.444.009 2.682 1.141 4.417 2.88 4.933-1.036-.833-1.66-2.305-1.666-4.305" transform="translate(-520 -3614) translate(520 3614) translate(293.678 195.593)"/>
                    <path fill="#88E0FF" d="M51.023 39.045c-1.304-.76-3.108-.654-5.1.499-3.962 2.285-7.165 7.831-7.153 12.384.006 2.262.805 3.852 2.091 4.599l2.228 1.27c-1.288-.75-2.087-2.34-2.092-4.6-.013-4.553 3.19-10.099 7.15-12.383 1.994-1.154 3.798-1.258 5.103-.503l-2.227-1.266z" transform="translate(-520 -3614) translate(520 3614) translate(293.678 195.593)"/>
                    <path fill="#00AFD8" d="M48.148 40.814c3.96-2.288 7.181-.455 7.194 4.103.015 4.55-3.185 10.092-7.147 12.38-3.96 2.286-7.185.454-7.198-4.1-.013-4.553 3.19-10.099 7.15-12.383" transform="translate(-520 -3614) translate(520 3614) translate(293.678 195.593)"/>
                    <path fill="#BCBCBC" d="M51.898 43.22c-.841-.487-2.002-.418-3.283.322-2.548 1.47-4.61 5.038-4.602 7.97.005 1.453.52 2.475 1.346 2.956l1.28.722c-.827-.481-1.34-1.505-1.347-2.959-.006-2.927 2.055-6.497 4.602-7.966 1.282-.741 2.445-.808 3.283-.321l-1.28-.723z" transform="translate(-520 -3614) translate(520 3614) translate(293.678 195.593)"/>
                    <path fill="#DDD" d="M49.894 44.265c2.547-1.473 4.62-.29 4.629 2.639.006 2.927-2.053 6.494-4.6 7.967-2.546 1.47-4.622.29-4.631-2.64-.007-2.927 2.055-6.497 4.602-7.966" transform="translate(-520 -3614) translate(520 3614) translate(293.678 195.593)"/>
                    <path fill="#E3FBFF" d="M40.997 53.198c-.013-4.554 3.19-10.1 7.15-12.384 1.787-1.034 3.419-1.219 4.677-.701-1.33-1.249-3.432-1.347-5.802.012-4.01 2.295-7.25 7.866-7.24 12.443.01 2.683 1.142 4.416 2.881 4.935-1.035-.833-1.66-2.306-1.666-4.305" transform="translate(-520 -3614) translate(520 3614) translate(293.678 195.593)"/>
                    <path fill="#AFAFAF" d="M56.485 53.965c-.004-.709-.469-1.417-1.396-1.955l-5.417-3.15c-.337-.196-.503-.45-.505-.706l.01 3.763c.004.255.17.51.502.705l5.422 3.15c.927.538 1.393 1.246 1.395 1.953l-.01-3.76z" transform="translate(-520 -3614) translate(520 3614) translate(293.678 195.593)"/>
                    <path fill="#CECECE" d="M10.39 70.123c-.678.39-.678 1.026-.004 1.42l5.419 3.147c3.212 1.866 8.459 1.87 11.698 0l30.005-17.325c3.235-1.867 3.252-4.907.04-6.774l-5.422-3.15c-.672-.39-1.771-.394-2.447-.002-.68.393-.682 1.03-.007 1.42l5.417 3.15c1.867 1.086 1.86 2.853-.022 3.937L25.06 73.27c-1.882 1.087-4.936 1.087-6.804.002l-5.417-3.149c-.673-.391-1.77-.393-2.448 0" transform="translate(-520 -3614) translate(520 3614) translate(293.678 195.593)"/>
                    <path fill="#AFAFAF" d="M59.944 53.955c.002 1.235-.81 2.471-2.436 3.41L27.503 74.69c-3.24 1.87-8.486 1.867-11.699 0l-5.417-3.148c-.337-.196-.506-.453-.507-.707l.012 3.763c.002.254.169.51.505.703l5.418 3.152c3.212 1.867 8.46 1.868 11.696 0L57.52 61.127c1.628-.938 2.44-2.176 2.437-3.412l-.012-3.76z" transform="translate(-520 -3614) translate(520 3614) translate(293.678 195.593)"/>
                    <path fill="#88E0FF" d="M35.076 24.417l-2.43-1.412c.047-.026.088-.092.088-.151l2.429 1.411c0 .06-.042.125-.087.152" transform="translate(-520 -3614) translate(520 3614) translate(293.678 195.593)"/>
                    <path fill="#497888" d="M35.163 24.266L32.733 22.854 32.68 3.802 35.107 5.212z" transform="translate(-520 -3614) translate(520 3614) translate(293.678 195.593)"/>
                    <path fill="#88E0FF" d="M35.107 5.212l-2.427-1.41c0-.028-.01-.048-.026-.057l2.427 1.412c.016.008.026.029.026.055" transform="translate(-520 -3614) translate(520 3614) translate(293.678 195.593)"/>
                    <path fill="#E2E2E2" d="M35.02 5.16l-2.428-1.408c.023-.015.045-.015.062-.007l2.427 1.412c-.015-.01-.037-.009-.062.004" transform="translate(-520 -3614) translate(520 3614) translate(293.678 195.593)"/>
                    <path fill="#75C1DB" d="M13.708 36.753L11.28 35.341 32.645 23.005 35.076 24.417z" transform="translate(-520 -3614) translate(520 3614) translate(293.678 195.593)"/>
                    <path fill="#88E0FF" d="M13.64 36.762l-2.428-1.411c.019.008.04.006.069-.01l2.427 1.412c-.028.016-.05.02-.068.009" transform="translate(-520 -3614) translate(520 3614) translate(293.678 195.593)"/>
                    <path fill="#E2E2E2" d="M13.64 36.762l-2.428-1.411c-.015-.011-.026-.03-.026-.058l2.43 1.412c0 .027.009.048.024.057" transform="translate(-520 -3614) translate(520 3614) translate(293.678 195.593)"/>
                    <path fill="#C2C2C2" d="M13.653 17.498L11.224 16.088 32.592 3.752 35.019 5.161z" transform="translate(-520 -3614) translate(520 3614) translate(293.678 195.593)"/>
                    <path fill="#797979" d="M13.615 36.706L11.186 35.293 11.132 16.241 13.562 17.654z" transform="translate(-520 -3614) translate(520 3614) translate(293.678 195.593)"/>
                    <path fill="#E2E2E2" d="M13.562 17.654l-2.43-1.413c0-.055.041-.126.093-.153l2.428 1.41c-.053.03-.091.1-.091.156" transform="translate(-520 -3614) translate(520 3614) translate(293.678 195.593)"/>
                    <path fill="#DDD" d="M35.02 5.16c.048-.026.087-.001.087.052l.056 19.054c0 .059-.041.124-.087.15L13.708 36.754c-.053.03-.093.01-.093-.047l-.053-19.053c0-.055.038-.124.09-.155L35.02 5.161z" transform="translate(-520 -3614) translate(520 3614) translate(293.678 195.593)"/>
                    <path fill="#BCBCBC" d="M35.02 22.966c.048-.028.087-.004.087.05l.056 1.25c0 .058-.041.125-.087.15L13.708 36.753c-.053.03-.093.01-.093-.048l-.053-1.25c0-.054.038-.124.09-.152L35.02 22.966z" transform="translate(-520 -3614) translate(520 3614) translate(293.678 195.593)"/>
                    <path fill="#BCBCBC" d="M35.02 5.16c.048-.026.087-.001.087.052l.056 19.054c0 .059-.041.124-.087.15l-.775.484c-.05.03-.092.011-.092-.047l-.054-19.055c0-.054.04-.124.09-.153l.774-.484z" transform="translate(-520 -3614) translate(520 3614) translate(293.678 195.593)"/>
                    <path fill="#00AFD8" d="M35.163 24.266l-.056-19.054c0-.053-.04-.077-.088-.051L13.653 17.498c-.053.03-.091.1-.091.156l.053 19.052c0 .057.04.076.093.047l21.368-12.336c.046-.027.087-.092.087-.151zm-.152-22.403c1.633-.943 2.968-.185 2.971 1.69l.055 19.052c.006 1.876-1.322 4.174-2.953 5.116L13.716 40.058c-1.635.941-2.966.18-2.972-1.695l-.052-19.053c-.007-1.875 1.318-4.167 2.953-5.11L35.01 1.863z" transform="translate(-520 -3614) translate(520 3614) translate(293.678 195.593)"/>
                    <path fill="#88E0FF" d="M34.69.248c-.539-.313-1.285-.273-2.109.203L11.215 12.788c-1.635.943-2.957 3.236-2.952 5.11l.052 19.053c.002.932.334 1.59.867 1.899l2.427 1.412c-.53-.309-.862-.966-.865-1.9l-.052-19.052c-.007-1.875 1.318-4.167 2.952-5.11L35.011 1.863c.821-.473 1.567-.52 2.108-.205L34.69.248z" transform="translate(-520 -3614) translate(520 3614) translate(293.678 195.593)"/>
                </g>
                <g>
                    <g transform="translate(-520 -3614) translate(520 3614) translate(205.172 33.524)">
                        <mask id="coyqfrc2ebv" fill="#fff">
                            <use xlink:href="#fyt6xz0jjbu"/>
                        </mask>
                        <path fill="#231F20" d="M158.572 198.368L154.933 197.196 159.161 194.008z" mask="url(#coyqfrc2ebv)"/>
                    </g>
                    <g transform="translate(-520 -3614) translate(520 3614) translate(205.172 33.524)">
                        <mask id="iamfwbd35bx" fill="#fff">
                            <use xlink:href="#04dnfnk8qbw"/>
                        </mask>
                        <path fill="#231F20" d="M167.617 192.746c2.54 3.98-12.093 12.654-18.186 15.522-9.282 4.37-13.13-.542-21.014-8.25-4.442-4.341-26.563-2.961-33.014-5.651-6.453-2.687-.937-9.793 18.998-13.44 27.422-5.019 53.216 11.82 53.216 11.82" mask="url(#iamfwbd35bx)"/>
                    </g>
                    <g transform="translate(-520 -3614) translate(520 3614) translate(205.172 33.524)">
                        <mask id="bwnwiy7x5bz" fill="#fff">
                            <use xlink:href="#gyjt95ojsby"/>
                        </mask>
                        <path fill="#231F20" d="M113.179 191.676L118.318 194.61 118.488 190.794 110.188 190.544z" mask="url(#bwnwiy7x5bz)"/>
                    </g>
                    <g transform="translate(-520 -3614) translate(520 3614) translate(205.172 33.524)">
                        <mask id="qtipx99g3bB" fill="#fff">
                            <use xlink:href="#2cln403v8bA"/>
                        </mask>
                        <path fill="#231F20" d="M111.508 180.334l-2.942 2.354s-13.38 6.007-14.24 6.289c-.568.184-1.53.86-1.536 1.891-.002.41.012.668.255 1.049.87 1.337 2.728 1.983 4.46 2.355 3.777.815 12.123-.484 12.123-.484.93-.407 6.357-1.18 6.802-1.504 0 0 1.663-.004 1.991.704.116.252-.089 1.388-.124 1.622l5.02-1.792c.257-.116.828-2.478.997-3.534l1.106-7.003-13.912-1.947z" mask="url(#qtipx99g3bB)"/>
                    </g>
                    <g transform="translate(-520 -3614) translate(520 3614) translate(205.172 33.524)">
                        <mask id="evvug9mq6bD" fill="#fff">
                            <use xlink:href="#hjteibuo5bC"/>
                        </mask>
                        <path fill="#60605D" d="M93.037 191.344c1.143 1.534 2.907 2.142 4.634 2.547 5.638 1.32 13.648-1.34 13.648-1.34 2.404-.756 4.802-1.18 5.523-1.107 0 0 1.708.227 1.61 1.522-.023.27.098.08.044.377.01-.15.006-.282-.024-.348-.326-.706-1.297-.632-1.297-.632-1.138-.033-1.713.106-5.105.989 0 0-7.865 2.677-13.43 1.886-1.756-.248-4.698-1.387-5.681-3.046-.171-.283-.361-.993-.128-1.471.021.084.152.552.206.623" mask="url(#evvug9mq6bD)"/>
                    </g>
                    <g transform="translate(-520 -3614) translate(520 3614) translate(205.172 33.524)">
                        <mask id="e95obwmjebF" fill="#fff">
                            <use xlink:href="#5k2aa0a0ebE"/>
                        </mask>
                        <path fill="#60605D" d="M118.31 192.397l5.666-1.59s-.534 2.058-.606 2.02l-5.073 1.783c.023-.168-.022-1.774.014-2.213" mask="url(#e95obwmjebF)"/>
                    </g>
                    <g transform="translate(-520 -3614) translate(520 3614) translate(205.172 33.524)">
                        <mask id="27ybe0dgsbH" fill="#fff">
                            <use xlink:href="#y2ds6d6pkbG"/>
                        </mask>
                        <path fill="#141413" d="M110.69 91.417s-1.52 32.072-1.825 40.007c-.358 9.347-1.423 48.788-1.423 48.788-.091 2.99-.454 3.633.507 4.545 3.591 3.404 15.26 9.277 16.621 2.825l11.133-86.982-25.012-9.183z" mask="url(#27ybe0dgsbH)"/>
                    </g>
                    <g transform="translate(-520 -3614) translate(520 3614) translate(205.172 33.524)">
                        <mask id="8mdl6n1edbJ" fill="#fff">
                            <use xlink:href="#b1nk7b5msbI"/>
                        </mask>
                        <path fill="#231F20" d="M148.803 188.652l-8.58 7.48s-4.34 3.614-5.945 4.587c-.723.439-1.216 1.392-1.252 2.312-.023.588.141 1.16.549 1.58 1.04 1.066 3.153 1.875 4.891 2.235 5.143 1.073 10.283-2.206 10.283-2.206.842-.56 6.554-4.393 6.974-4.744 1.187-.993 2.272-1.394 2.72-.75 0 0-.028 1.592-.023 1.822l4.787-3.422s.282-1.81.263-2.876l-.13-7.09-14.537 1.072z" mask="url(#8mdl6n1edbJ)"/>
                    </g>
                    <g transform="translate(-520 -3614) translate(520 3614) translate(205.172 33.524)">
                        <mask id="xp0nrm5qwbL" fill="#fff">
                            <use xlink:href="#igpy895ggbK"/>
                        </mask>
                        <path fill="#60605D" d="M133.026 203.262c1.077 1.596 3.742 2.386 5.465 2.812 6.054 1.488 10.4-2.175 10.4-2.175 1.638-1.052 6.21-4.086 6.67-4.351 0 0 2.645-2.055 2.818-.49.028.265.073.32.072.62-.018-.152-.114-.267-.138-.335-.35-1.023-3.007 1.007-3.007 1.007-.384.394-5.58 4.067-6.42 4.625 0 0-4.847 3.87-10.595 2.265-1.707-.474-3.872-1.111-4.95-2.703-.293-.432-.365-1.352-.315-1.275" mask="url(#xp0nrm5qwbL)"/>
                    </g>
                    <g transform="translate(-520 -3614) translate(520 3614) translate(205.172 33.524)">
                        <mask id="vtzhu8rwkbN" fill="#fff">
                            <use xlink:href="#kwgzax4cdbM"/>
                        </mask>
                        <path fill="#60605D" d="M158.38 199.057s2.277-1.315 3.052-1.72c1.812-.957 2.022-1.641 2.022-1.641s-.112 2.032-.19 2.005c0 0-.049.563-1.082 1.203-.94.58-3.768 2.063-3.768 2.063l-.035-1.91z" mask="url(#vtzhu8rwkbN)"/>
                    </g>
                    <g transform="translate(-520 -3614) translate(520 3614) translate(205.172 33.524)">
                        <mask id="x8d2da62qbP" fill="#fff">
                            <use xlink:href="#01whh1jqpbO"/>
                        </mask>
                        <path fill="#383736" d="M120.338 95.361s9.946 54.416 11.13 59.337c3.771 15.647 12.582 36.003 12.582 36.003.535 2.083 1.612 2.522 3.524 3.004 11.656 2.94 15.884-2.665 15.884-2.665.718-.676.513-1.21.405-1.956 0 0-6.661-16.581-10.45-38.61-2.317-13.488-1.475-30.642-3.482-42.518-.424-2.508-5.233-13.718-5.233-13.718l-24.36 1.123z" mask="url(#x8d2da62qbP)"/>
                    </g>
                    <g transform="translate(-520 -3614) translate(520 3614) translate(205.172 33.524)">
                        <mask id="sjkw38kw4bR" fill="#fff">
                            <use xlink:href="#42x9cn803bQ"/>
                        </mask>
                        <path fill="#141413" d="M56.918 108.274c2.757 4.617 7.014 4.74 7.014 4.74s18.154-12.966 23.184-20.292c4.222-6.154 7.162-20.417 7.162-20.417s6.372-12.271.82-16.867c-3.174-2.63-9.677-4.814-13.263 3.43-1.657 3.793-3.197 21.735-6.49 27.464-3.445 5.983-19.27 17.875-19.27 17.875s-.323 2.11.843 4.067" mask="url(#sjkw38kw4bR)"/>
                    </g>
                    <g transform="translate(-520 -3614) translate(520 3614) translate(205.172 33.524)">
                        <mask id="l8io3sxtqbT" fill="#fff">
                            <use xlink:href="#p3kx2hyqybS"/>
                        </mask>
                        <path fill="#EDEDED" d="M105.294 46.955s-6.776-2.365-10.034-1.17c-3.255 1.196-10.707 8.48-10.707 8.48s3.787 12.747 4.29 13.404c.504.658 23.434 36.927 23.434 36.927s2.69 2.588 7.947 1.488c4.866-1.021 12.084-2.66 17.17-8.301 4.738-5.258-32.1-50.828-32.1-50.828" mask="url(#l8io3sxtqbT)"/>
                    </g>
                    <g transform="translate(-520 -3614) translate(520 3614) translate(205.172 33.524)">
                        <mask id="0o60n93djbV" fill="#fff">
                            <use xlink:href="#1gwvkxphkbU"/>
                        </mask>
                        <path fill="#E8C5AC" d="M90.247 56.066c7.196.65 6.615-6.158 6.664-11.319L88.388 33.39l-7.417 10.976 9.276 11.7z" mask="url(#0o60n93djbV)"/>
                    </g>
                    <g transform="translate(-520 -3614) translate(520 3614) translate(205.172 33.524)">
                        <mask id="dfas2widybX" fill="#fff">
                            <use xlink:href="#gx2gsa8xjbW"/>
                        </mask>
                        <path fill="#FFE8D9" d="M79.886 30.344c-2.291 1.76-.86 4.157-.86 4.157l3.534 4.608s.883.914 1.881.43c1.511-.736 1.199-2.31.82-4.014-.02-.097-.698-2.518-.738-2.664-.566-2.059-2.467-4.185-4.637-2.517" mask="url(#dfas2widybX)"/>
                    </g>
                    <g transform="translate(-520 -3614) translate(520 3614) translate(205.172 33.524)">
                        <mask id="9vmd8uvyhbZ" fill="#fff">
                            <use xlink:href="#0vq0zvjczbY"/>
                        </mask>
                        <path fill="#282827" d="M112.303 87.234c-3.684-7.543-14.76-23.391-11.76-33.043 1.817-5.847-1.046-9.177-1.128-9.115-1.02.003 14.737 1.37 21.38 7.09 9.008 7.755 23.278 34.192 23.278 34.192l5.64 15.214c.74 3.048.55 5.682-3.638 9.803-2.556 2.513-9.228 7.168-13.75 8.05l-20.022-32.191z" mask="url(#9vmd8uvyhbZ)"/>
                    </g>
                    <g transform="translate(-520 -3614) translate(520 3614) translate(205.172 33.524)">
                        <mask id="9ddfc4nvpcb" fill="#fff">
                            <use xlink:href="#ypcgqwxlvca"/>
                        </mask>
                        <path fill="#282827" d="M82.402 58.178c-.15-1.96 3.527-7.902 3.904-8.447-.784 3.308 2.031 13.128 6.35 19.366 1.884 2.72 8.655 16.53 11.313 18.98l17.142 31.677c-2.131.006-7.092-1.549-7.092-1.549-2.202-1.077-3.135-3.17-4.154-4.497l-15.396-29.5c-4.562-8.058-11.777-22.143-12.067-26.03" mask="url(#9ddfc4nvpcb)"/>
                    </g>
                    <g transform="translate(-520 -3614) translate(520 3614) translate(205.172 33.524)">
                        <mask id="kltcx2iw9cd" fill="#fff">
                            <use xlink:href="#8pur9zfgwcc"/>
                        </mask>
                        <path fill="#FF5E48" d="M95.086 63.269c-.2-.483-.436-.791-.877-1.209l-1.402-1.25-.373-4.751 1.17-.58 3.308 3.16-.316 2.393c-.097.542.18 1.542.518 1.949 0 0 5.987 16.44 16.815 31.132 1.149 1.559 2.723 7.92 2.723 7.92s-5.318-4.153-6.81-6.03c-5.43-6.822-14.756-32.734-14.756-32.734" mask="url(#kltcx2iw9cd)"/>
                    </g>
                    <g transform="translate(-520 -3614) translate(520 3614) translate(205.172 33.524)">
                        <mask id="jbdlsmjwhcf" fill="#fff">
                            <use xlink:href="#olrvrgr43ce"/>
                        </mask>
                        <path fill="#7A797A" d="M86.286 52.692l-2.22-.594s-.417 1.07-.475 1.341c-.191.911.37 3.369.37 3.369l1.707 8.082c.427 1.238.674 1.814 1.81 2.361l3.095.877-.333 3.129c-.235 2 .592 2.695 1.885 3.93l11.844 12.89S97.03 76.49 94.21 71.665c-6.298-10.788-7.924-18.974-7.924-18.974" mask="url(#jbdlsmjwhcf)"/>
                    </g>
                    <g transform="translate(-520 -3614) translate(520 3614) translate(205.172 33.524)">
                        <mask id="a9793n83zch" fill="#fff">
                            <use xlink:href="#w5nrqjht3cg"/>
                        </mask>
                        <path fill="#FFF" d="M92.147 55.521c.93.01.983.985 1.013 1.662l.168 4.208c.01 1.29-.977.596-1.659-.246l-4.767-6.208c-2.626-4.155-.973-4.661-.973-4.661s.454.204 1.003 1.056c.912 1.416 2.035 4.158 5.215 4.19" mask="url(#a9793n83zch)"/>
                    </g>
                    <g transform="translate(-520 -3614) translate(520 3614) translate(205.172 33.524)">
                        <mask id="j1nuh623vcj" fill="#fff">
                            <use xlink:href="#t950i0ve6ci"/>
                        </mask>
                        <path fill="#FFF" d="M94.802 41.998s.725.52.985 1.754c1.064 5.004-2.733 11.294-2.733 11.294-.46.742-.186 1.037.767 2.053l3.74 3.499c.92.971 1.383.438 1.463-.32 0 0 1.392-6.916 1.627-9.06.548-5.035.752-4.917-3.133-7.72-2.343-1.688-2.716-1.5-2.716-1.5" mask="url(#j1nuh623vcj)"/>
                    </g>
                    <g transform="translate(-520 -3614) translate(520 3614) translate(205.172 33.524)">
                        <mask id="7dvloq7obcl" fill="#fff">
                            <use xlink:href="#jcaprsvg6ck"/>
                        </mask>
                        <path fill="#7A797A" d="M97.707 43.45l3.063.68s.928.222 1.19.362c.876.466 1.106 1.529 1.106 1.529l1.292 12.224c.67 1.637.801 2.279-.081 3.245l-2.292 3.535 4.076 1.988c1.528.718 1.714 2.006 2.099 3.332l5.394 19.39S101.67 71.33 98.106 58.384c-1.328-4.827-.399-14.933-.399-14.933" mask="url(#7dvloq7obcl)"/>
                    </g>
                    <g transform="translate(-520 -3614) translate(520 3614) translate(205.172 33.524)">
                        <mask id="8z0lnuuj7cn" fill="#fff">
                            <use xlink:href="#ger6a3unwcm"/>
                        </mask>
                        <path fill="#E2E2E2" d="M56.074 104.207s3.338-1.919 6.085.987c2.746 2.906 3.422 6.515 2.578 7.276-.84.764-.805.543-.805.543s-1.279.011-1.616-.233c-.336-.245-6.982-2.196-6.242-8.573" mask="url(#8z0lnuuj7cn)"/>
                    </g>
                    <g transform="translate(-520 -3614) translate(520 3614) translate(205.172 33.524)">
                        <mask id="9ch7pl3x9cp" fill="#fff">
                            <use xlink:href="#j8cmpv3j5co"/>
                        </mask>
                        <path fill="#FFE1CC" d="M70.794 26.42l.002.006 9.563-5.774 10.363 16.664c.59 1.258 1.136 1.925 1.551 3.041.458 1.228.58 2.551-.142 4.376 0 0-4.23 8.682-6.098 10.08-1.127.84-2.765 1.414-4.827.486-.975-.44-.642-.123-3.672-1.976-1.8-1.104-3.253-2.407-3.953-3.35l-7.4-10.453-4.452-6.316 9.065-6.784z" mask="url(#9ch7pl3x9cp)"/>
                    </g>
                    <g transform="translate(-520 -3614) translate(520 3614) translate(205.172 33.524)">
                        <mask id="0zsin251scr" fill="#fff">
                            <use xlink:href="#ujmws9d53cq"/>
                        </mask>
                        <path fill="#543211" d="M59.658 30.709c-.34 1.614.01 1.206 3.48 4.954.25.272 1.093 1.102 1.058 1.04-1.732-3.032-1.786-4.722-.298-4.454 3.362.61 7.566 1.645 9.339 2.07 1.334.32 1.8-.698 2.335-2.02.563-1.382.66-1.786 1.077-2.05 2.239-1.405 3.285.946 4.941 2.952l1.83 2c2.251 1.32 2.154-.605 1.872-1.58 0 0-.973-1.819 1.361-2.82 1.997-.855 3.236 4.271 3.263 4.555 0 0 3.462 5.567 3.338 4.392-.485-4.609-.906-9.244-1.114-10.622-2.355-15.447-17.792-19.018-27.513-8.131-1.816 2.037-4.97 9.714-4.97 9.714" mask="url(#0zsin251scr)"/>
                    </g>
                    <g transform="translate(-520 -3614) translate(520 3614) translate(205.172 33.524)">
                        <mask id="plrrpnasbct" fill="#fff">
                            <use xlink:href="#3u2z6yxnycs"/>
                        </mask>
                        <path fill="#FFE1CC" d="M86.187 30.844c-2.47 1.506-1.3 4.045-1.3 4.045l3.02 4.957s.778 1.007 1.822.63c1.581-.57 1.443-2.167 1.247-3.902-.01-.101-.42-2.58-.447-2.73-.345-2.107-2.006-4.423-4.342-3" mask="url(#plrrpnasbct)"/>
                    </g>
                    <g transform="translate(-520 -3614) translate(520 3614) translate(205.172 33.524)">
                        <mask id="jk9gjby0gcv" fill="#fff">
                            <use xlink:href="#9ueo14i7kcu"/>
                        </mask>
                        <path fill="#E8C5AC" d="M60.467 105.7s-7.034.168-9.1.71c-2.064.547-5.737 10.17-3.587 10.581.874.167 1.674-.87 4.698-2.345 1.215-.593 9.927-2.26 10.328-3.784.676-2.582-2.34-5.162-2.34-5.162" mask="url(#jk9gjby0gcv)"/>
                    </g>
                    <g transform="translate(-520 -3614) translate(520 3614) translate(205.172 33.524)">
                        <mask id="8hnwbnl0zcx" fill="#fff">
                            <use xlink:href="#37y294s7ucw"/>
                        </mask>
                        <path fill="#EACEB5" d="M55.427 107.678s-3.892 2.343-4.524 2.778c-.636.436-1.892 3.504-2.148 3.996-.305.586-.538.796.229 1.108.58.236 1.66.15 2.546-1.112.885-1.262 1.335-1.791 1.335-1.791s1.92.306 3.623.103c1.708-.204 3.788-1.258 4.16-2.573.495-1.76-1.114-4.339-5.22-2.509" mask="url(#8hnwbnl0zcx)"/>
                    </g>
                    <g transform="translate(-520 -3614) translate(520 3614) translate(205.172 33.524)">
                        <mask id="mpj6pgznvcz" fill="#fff">
                            <use xlink:href="#weqm7s5i5cy"/>
                        </mask>
                        <path fill="#FFE8D9" d="M92.588 117.647l-3.182-1.913-3.62.32s-1.829.718-3.016 4.408c-1.237 3.842-10.696 7.268-9.662 8.088.75.595 5.9 1.61 8.002.987 5.287-1.57 9.04-6.948 9.04-6.948 1.476-1.971 3.772-3.085 2.438-4.942" mask="url(#mpj6pgznvcz)"/>
                    </g>
                    <g transform="translate(-520 -3614) translate(520 3614) translate(205.172 33.524)">
                        <mask id="7c9pmwvozcB" fill="#fff">
                            <use xlink:href="#6qfm95oivcA"/>
                        </mask>
                        <path fill="#FFE8D9" d="M88.279 118.969c-1.009 1.616-3.848 1.31-5.313.39-.513-.318-3.777 3.098-5.796 1.641 0 0 .66-1.05 1.884-2.846.099-.143.846-1.862 2.503-2.368 4.374-1.336 5.013-1.715 6.48-.798 1.47.919 1.246 2.37.242 3.98" mask="url(#7c9pmwvozcB)"/>
                    </g>
                    <g transform="translate(-520 -3614) translate(520 3614) translate(205.172 33.524)">
                        <mask id="uloackbohcD" fill="#fff">
                            <use xlink:href="#2lemcb4mhcC"/>
                        </mask>
                        <path fill="#383736" d="M88.403 119.634c1.798 1.753 3.588 1.864 3.588 1.864s3.268-1.303 4.539-2.287c3.878-3.001 16.823-20.093 18.263-25.892 1.576-6.364 3.502-28.144 3.502-28.144s2.162-12.308-4.871-13.9c-5.858-1.324-8.084 3.852-9.242 8.983-.915 4.034-3.165 31.33-3.165 31.33l-17.466 22.659s1.293 1.918 4.852 5.387" mask="url(#uloackbohcD)"/>
                    </g>
                </g>
            </g>
        </g>
    </g>
</svg>
