<svg xmlns="http://www.w3.org/2000/svg" width="16" height="17" viewBox="0 0 16 17">
    <g fill="none" fill-rule="evenodd">
        <g fill="#FFF">
            <path d="M922.634 4502.203l-12.401-6.8c-.372-.204-.823-.197-1.188.02-.364.215-.588.607-.588 1.031v13.601c0 .424.224.816.588 1.032.365.216.816.224 1.188.02l12.4-6.8c.385-.21.624-.614.624-1.052 0-.438-.24-.842-.623-1.052zm-12.977 7.852v-6h5.2c.332 0 .6-.269.6-.6 0-.332-.268-.6-.6-.6h-5.2v-6.4l12.4 6.8-12.4 6.8z" transform="translate(-908 -4495)"/>
        </g>
    </g>
</svg>
