<svg xmlns="http://www.w3.org/2000/svg" xmlns:xlink="http://www.w3.org/1999/xlink" width="1440" height="861" viewBox="0 0 1440 861">
    <defs>
        <path id="j3j188f83a" d="M0 0H1440V861H0z"/>
        <path id="wgohtakofc" d="M0 0.805L22.192 0.805 22.192 22.78 0 22.78z"/>
        <path id="ykv33j9b8e" d="M0.613 0.382L17.8 0.382 17.8 18 0.613 18z"/>
        <path id="963rq6508g" d="M0.23 0.805L22.407 0.805 22.407 22.779 0.23 22.779z"/>
        <path id="4hxy4qks7i" d="M0.613 0.382L17.8 0.382 17.8 18 0.613 18z"/>
    </defs>
    <g fill="none" fill-rule="evenodd">
        <g>
            <g transform="translate(0 -2090) translate(0 2090)">
                <mask id="zas85vxm0b" fill="#fff">
                    <use xlink:href="#j3j188f83a"/>
                </mask>
                <use fill="#F7F7F7" xlink:href="#j3j188f83a"/>
                <g mask="url(#zas85vxm0b)" opacity=".161">
                    <g>
                        <path fill="#727171" d="M450.95 196.103L609.821 62.706 411.372 9.441l39.577 186.662zM612 62.223l-.753.631L450.277 198l-.175-.843L410 8l202 54.224z" transform="translate(976 20)"/>
                        <path fill="#727171" d="M648.74 234.93l1.064-.504-.042-.128v-.007L610.169 62.863 451.325 196.685 648.74 234.93zm2.26.074l-2.125.996-.16-.027L449 197.283l.833-.694L610.773 61l.203.812 39.942 172.924v.007l.082.261z" transform="translate(976 20)"/>
                        <path fill="#727171" d="M351.92 106.213l97.404 89.842-39.385-186.77-192.826 52.05.267 2.771 133.642 41.588 54.573-92.98.885.517-54.56 92.982zM451 199l-1.18-1.09-98.812-91.14-134.593-41.883-.415-4.33.43-.108L410.716 8l.134.532L451 199z" transform="translate(976 20)"/>
                        <path fill="#727171" d="M233.51 228.671l117.61-122.09-132.96-41.142 15.35 163.232zM353 106.093L232.706 231l-.107-1.117L217 64l.732.234L353 106.094z" transform="translate(976 20)"/>
                        <path fill="#727171" d="M146.96 333.273l220.14 33.248-134.53-135.994-85.61 102.746zM370 368l-1.53-.234L145 334.023l.583-.696L232.51 229l.402.402L370 368z" transform="translate(976 20)"/>
                        <path fill="#727171" d="M447.927 197.35l-212.079 33.076-.174-1.013 212.091-33.085.162 1.022zm-214.479 32.29l135.75 137.903.135-.237 80.523-170.348-98.257-90.507L233.45 229.64zm136.313 138.412l147.333 137.084 121.033 76.374 13.7-140.61-132.614 62.813-.442-.927 133.03-62.999-282.04-71.735zM638.985 583l-.723-.175-.054-.026-121.755-76.844-148.366-138.05L232 229.648l.355-.363L351.56 105l.36.35 99.17 91.368-.147.342L370.5 367.186 654 439.264l-.014 1.007-1.086.2L638.985 583z" transform="translate(976 20)"/>
                        <path fill="#727171" d="M371.001 367.153L651.923 438.5 526.92 293.261l-155.92 73.892zM654 439.343l-.362.657-.389-.094L368 367.45l1.259-.61L527.189 292l.268.296L654 439.344z" transform="translate(976 20)"/>
                        <path fill="#727171" d="M527.378 291.78l119.337-56.474-195.17-37.752 75.833 94.227zM650 234.894l-1.434.676L527.218 293l-.363-.255L449 196l201 38.893z" transform="translate(976 20)"/>
                        <path fill="#727171" d="M371.16 366.826l155.907-74.02-76.102-94.869-79.806 168.889zM529 293.041l-.886.424L369 369l81.722-173 .538.646 76.988 95.951.752.444z" transform="translate(976 20)"/>
                        <path fill="#727171" d="M211.01 755.608l77.924-100.649.403.51L410.36 809.601l28.419-140.336c-11.107-.965-138.725-12.08-149.374-15.822l-.028.042-.443-.241h-.026c-.161-.122-.483-.31-.483-.685h.335l-.027-.027 66.804-118.547c-13.593-5.593-53.078-21.95-88.238-36.833-.029 0-.029-.025-.042-.025-32.696-13.836-61.631-26.44-62.505-27.982 0-.013-.013-.025-.025-.039l-.062-.214.195-.39.18-.108.229.484.384-.202c2.604 3.004 108.597 47.168 150.152 64.316l11.847-163.31c-55.536 32.641-159.724 94.222-162.013 96.983l-.37-.254v.548h-.309l-.356-.508.155-.296c1.633-2.814 140.503-84.505 161.977-97.13.363-.213.699-.414 1.008-.59l.055-.71-221.14-33.431 55.568 131.031.12 3.674 83.82 183.332-.939.442-82.805-181.12 8.588 283.955zM410.912 812L288.934 656.635l-78.856 101.883-.048-1.448-8.816-291.64L145 333l.9.134 222.987 33.72-.029.475L356.8 533.407l.201.068-.228.415-.027.59-.242-.094-66.602 118.16c8.838 2.99 100.97 11.53 149.522 15.754l.577.039-.092.563L410.91 812z" transform="translate(976 20)"/>
                        <path fill="#727171" d="M411.54 810.566l196.634-52.91-166-85.326.188-.442 73.679-165.535-158.575 28.371c28.142 45.833 81.707 131.952 85.485 134.134 0 0-.026-.012-.107-.012v1.032c-.147 0-.254-.053-.403-.135-4.823-2.787-78.57-122.635-85.792-134.376l-66.242 117.732c8.818 2.989 100.749 11.526 149.194 15.747l.576.04-.093.563-28.544 141.117zm199.46-52.6L410.2 812l.16-.817 28.597-141.372c-11.283-.965-143.243-12.505-149.515-16.014l-.442-.268.241-.444 66.791-118.736-.241-.388.51-.081.294-.537.282.43L517.784 505l-.39.872-73.893 165.989L611 757.966z" transform="translate(976 20)"/>
                        <path fill="#727171" d="M443.33 671.52l166.206 85.167-92.618-249.928-73.587 164.761zM611 757.691l-1.156.309-.175-.092L442 671.989l.189-.442L517.026 504l.416 1.193L611 757.69zM13.422 405.26l187.766 59.84-55.238-130.893-80.77-123.714L13.422 405.26zM129.75 543.482l71.925-74.31-.08-2.86-188.44-60.059-1.018 3.788L129.75 543.482zm72.969-73.759l-.308.08.055.041L129.716 545l-.368-.43L11 410.325l.074-.283L64.773 208l.636.962 81.443 124.763 55.626 131.807.12.027v.269l.402.94-.368-.109.087 3.064zM212.828 62.33l3.974 1.206-.216-2.202-3.758.996zM218 65l-9-2.738L217.536 60l.464 5z" transform="translate(976 20)"/>
                        <path fill="#727171" d="M65.23 209.432l166.627 20.383-15.446-164.891-5.655-1.756L65.23 209.432zM233 231l-.625-.082L63 210.206 210.468 62l6.91 2.143.027.336L233 231zM130.186 544.558l79.69 210.199-8.543-283.748-71.147 73.55zM211 757.785l-.998.215L129 544.305 201.873 469l.48 1.127L211 757.785z" transform="translate(976 20)"/>
                        <path fill="#727171" d="M211.765 756.972l197.539 53.2-120.162-153.493-77.377 100.293zM412 812l-202-54.45.457-.605L289.142 655 412 812zM64.466 609.975l64.12-65.8L11.563 412.32l52.904 197.655zM130 544.2L63.934 612l-.234-.886L10 410.482l.888-.482L130 544.2z" transform="translate(976 20)"/>
                        <path fill="#727171" d="M65.444 610.718l143.737 144.826-79.943-210.68-63.794 65.854zM211 757.45l-.837.551L64 610.732l.354-.363L129.624 543l.289.738L211 757.45zM357.125 533.755l158.635-28.37-146.704-136.177-11.93 164.547zM518 506.056l-1.033.175L356 535l.04-.644L368.17 367 518 506.056zM146.686 333.277L232.01 230.56 66.065 210.287l80.62 122.99zM234 229.764L146.584 335l-.381-.57L64 209l170 20.764z" transform="translate(976 20)"/>
                        <path fill="#9FA0A0" d="M402 8.493C402 3.81 405.795 0 410.495 0 415.192 0 419 3.81 419 8.493c0 4.69-3.808 8.507-8.505 8.507-4.7 0-8.495-3.817-8.495-8.507M200 62.01c0-6.083 4.928-11.01 11.003-11.01 6.077 0 11.004 4.92 10.997 10.997C222.007 68.07 217.08 73 211.003 73 204.928 73 200 68.071 200 62.01M56 209.498c0-4.698 3.796-8.51 8.493-8.498 4.704-.012 8.507 3.8 8.507 8.498 0 4.697-3.81 8.502-8.5 8.502-4.704 0-8.5-3.805-8.5-8.502M56 610.494c0-4.676 3.796-8.494 8.5-8.494 4.697 0 8.5 3.805 8.5 8.494 0 4.69-3.803 8.506-8.507 8.506-4.697 0-8.493-3.817-8.493-8.506" transform="translate(976 20)"/>
                        <g transform="translate(976 20) translate(0 398)">
                            <mask id="5ub79b91pd" fill="#fff">
                                <use xlink:href="#wgohtakofc"/>
                            </mask>
                            <path fill="#9FA0A0" d="M0 11.786C.007 5.722 4.976.805 11.103.805c6.12 0 11.09 4.917 11.09 10.981 0 6.078-4.97 10.994-11.09 10.994C4.97 22.78-.007 17.864 0 11.786" mask="url(#5ub79b91pd)"/>
                        </g>
                        <path fill="#9FA0A0" d="M200 758c0-6.06 4.927-11 11-11 6.074 0 10.993 4.94 11 11 0 6.089-4.926 11-10.993 11-6.08 0-11.007-4.911-11.007-11" transform="translate(976 20)"/>
                        <g transform="translate(976 20) translate(402 802)">
                            <mask id="oufy48iv4f" fill="#fff">
                                <use xlink:href="#ykv33j9b8e"/>
                            </mask>
                            <path fill="#9FA0A0" d="M.613 9.184C.613 4.324 4.45.382 9.186.382c4.764 0 8.614 3.942 8.614 8.802C17.8 14.03 13.95 18 9.2 18S.614 14.03.614 9.184" mask="url(#oufy48iv4f)"/>
                        </g>
                        <path fill="#9FA0A0" d="M357 368c0-6.086 4.92-11 11.007-11 6.073 0 10.993 4.914 10.993 11 0 6.078-4.92 11-11.019 11-6.061 0-10.981-4.922-10.981-11M348 534.507c0-4.703 3.816-8.507 8.492-8.507 4.706 0 8.508 3.804 8.508 8.507 0 4.69-3.802 8.493-8.508 8.493-4.676 0-8.492-3.803-8.492-8.493M428 669.006c.013-6.092 4.93-11.006 10.987-11.006 6.096 0 11.013 4.914 11.013 11.006 0 6.078-4.917 10.994-11.013 10.994-6.07 0-10.987-4.916-10.987-10.994M281 656.493c0-4.688 3.806-8.493 8.5-8.493 4.68 0 8.5 3.805 8.5 8.493 0 4.703-3.806 8.507-8.5 8.507s-8.5-3.804-8.5-8.507M191 468.987c0-6.075 4.919-10.987 10.993-10.987 6.087 0 11 4.912 11.007 10.987 0 6.073-4.92 11.013-10.994 11.013-6.087-.027-11.006-4.94-11.006-11.013M138 333.503c0-4.694 3.812-8.503 8.505-8.503 4.683 0 8.487 3.802 8.495 8.503-.008 4.693-3.8 8.497-8.507 8.497-4.68 0-8.493-3.804-8.493-8.497M222 229.987c0-6.065 4.913-10.999 11-10.987 6.08-.012 11 4.917 11 10.993 0 6.078-4.932 11.007-11 11.007-6.073 0-11-4.929-11-11.013M440 197.006c0-6.085 4.93-11.013 11.012-11.006 6.058-.007 10.988 4.914 10.988 11 0 6.078-4.93 11-10.988 11-6.095 0-11.012-4.922-11.012-10.994M343 106.497c.027-4.684 3.804-8.504 8.507-8.497 4.69 0 8.493 3.806 8.493 8.497 0 4.697-3.802 8.503-8.493 8.503-4.703.007-8.48-3.806-8.507-8.503M121 544.511c0-4.711 3.808-8.511 8.51-8.511 4.689 0 8.49 3.8 8.49 8.511-.007 4.687-3.801 8.489-8.496 8.489-4.696 0-8.504-3.802-8.504-8.489" transform="translate(976 20)"/>
                    </g>
                </g>
                <g mask="url(#zas85vxm0b)" opacity=".077">
                    <g>
                        <path fill="#727171" d="M609.673 760L609.02 757.382 609.98 757 609.92 757.924zM655.903 438.74l154.08-29.215-158.626-173.588 4.546 202.804zM812 410.185l-.914.173L654.895 440l-.029-.615-4.53-203.521-.336-1.407.98-.457.284.282L812 410.184z" transform="translate(-243 28)"/>
                        <path fill="#727171" d="M654.605 438.876l.335-.068-4.494-202.502-1.263-.242-120.505 56.945 125.927 145.867zm1.395.762l-1.798.362-.215-.228L527 292.653l.631-.294L649.05 235l2.401.462.015.414L656 439.638zM450.95 196.103L609.821 62.706 411.372 9.441l39.577 186.662zM612 62.223l-.753.631L450.277 198l-.175-.843L410 8l202 54.224z" transform="translate(-243 28)"/>
                        <path fill="#727171" d="M655 441L653 440.334 653.366 439.426 654.967 439zM651 234.329L649.646 235 649 232z" transform="translate(-243 28)"/>
                        <path fill="#727171" d="M648.74 234.93l1.064-.504-.042-.128v-.007L610.169 62.863 451.325 196.685 648.74 234.93zm2.26.074l-2.125.996-.16-.027L449 197.283l.833-.694L610.773 61l.203.812 39.942 172.924v.007l.082.261z" transform="translate(-243 28)"/>
                        <path fill="#727171" d="M653 233.87l-2.87 1.13-1.13-1.028.551-.296c.116-.053.116-.053 3.087-.676l.362.87zM351.92 106.213l97.404 89.842-39.385-186.77-192.826 52.05.267 2.771 133.642 41.588 54.573-92.98.885.517-54.56 92.982zM451 199l-1.18-1.09-98.812-91.14-134.593-41.883-.415-4.33.43-.108L410.716 8l.134.532L451 199z" transform="translate(-243 28)"/>
                        <path fill="#727171" d="M233.51 228.671l117.61-122.09-132.96-41.142 15.35 163.232zM353 106.093L232.706 231l-.107-1.117L217 64l.732.234L353 106.094zM651 237L647 236.035 650.447 234z" transform="translate(-243 28)"/>
                        <path fill="#727171" d="M146.96 333.273l220.14 33.248-134.53-135.994-85.61 102.746zM370 368l-1.53-.234L145 334.023l.583-.696L232.51 229l.402.402L370 368z" transform="translate(-243 28)"/>
                        <path fill="#727171" d="M447.927 197.35l-212.079 33.076-.174-1.013 212.091-33.085.162 1.022zm-214.479 32.29l135.75 137.903.135-.237 80.523-170.348-98.257-90.507L233.45 229.64zm136.313 138.412l147.333 137.084 121.033 76.374 13.7-140.61-132.614 62.813-.442-.927 133.03-62.999-282.04-71.735zM638.985 583l-.723-.175-.054-.026-121.755-76.844-148.366-138.05L232 229.648l.355-.363L351.56 105l.36.35 99.17 91.368-.147.342L370.5 367.186 654 439.264l-.014 1.007-1.086.2L638.985 583z" transform="translate(-243 28)"/>
                        <path fill="#727171" d="M371.001 367.153L651.923 438.5 526.92 293.261l-155.92 73.892zM654 439.343l-.362.657-.389-.094L368 367.45l1.259-.61L527.189 292l.268.296L654 439.344z" transform="translate(-243 28)"/>
                        <path fill="#727171" d="M527.378 291.78l119.337-56.474-195.17-37.752 75.833 94.227zM650 234.894l-1.434.676L527.218 293l-.363-.255L449 196l201 38.893z" transform="translate(-243 28)"/>
                        <path fill="#727171" d="M371.16 366.826l155.907-74.02-76.102-94.869-79.806 168.889zM529 293.041l-.886.424L369 369l81.722-173 .538.646 76.988 95.951.752.444z" transform="translate(-243 28)"/>
                        <path fill="#727171" d="M211.01 755.608l77.924-100.649.403.51L410.36 809.601l28.419-140.336c-11.107-.965-138.725-12.08-149.374-15.822l-.028.042-.443-.241h-.026c-.161-.122-.483-.31-.483-.685h.335l-.027-.027 66.804-118.547c-13.593-5.593-53.078-21.95-88.238-36.833-.029 0-.029-.025-.042-.025-32.696-13.836-61.631-26.44-62.505-27.982 0-.013-.013-.025-.025-.039l-.062-.214.195-.39.18-.108.229.484.384-.202c2.604 3.004 108.597 47.168 150.152 64.316l11.847-163.31c-55.536 32.641-159.724 94.222-162.013 96.983l-.37-.254v.548h-.309l-.356-.508.155-.296c1.633-2.814 140.503-84.505 161.977-97.13.363-.213.699-.414 1.008-.59l.055-.71-221.14-33.431 55.568 131.031.12 3.674 83.82 183.332-.939.442-82.805-181.12 8.588 283.955zM410.912 812L288.934 656.635l-78.856 101.883-.048-1.448-8.816-291.64L145 333l.9.134 222.987 33.72-.029.475L356.8 533.407l.201.068-.228.415-.027.59-.242-.094-66.602 118.16c8.838 2.99 100.97 11.53 149.522 15.754l.577.039-.092.563L410.91 812z" transform="translate(-243 28)"/>
                        <path fill="#727171" d="M411.54 810.566l196.634-52.91-166-85.326.188-.442 73.679-165.535-158.575 28.371c28.142 45.833 81.707 131.952 85.485 134.134 0 0-.026-.012-.107-.012v1.032c-.147 0-.254-.053-.403-.135-4.823-2.787-78.57-122.635-85.792-134.376l-66.242 117.732c8.818 2.989 100.749 11.526 149.194 15.747l.576.04-.093.563-28.544 141.117zm199.46-52.6L410.2 812l.16-.817 28.597-141.372c-11.283-.965-143.243-12.505-149.515-16.014l-.442-.268.241-.444 66.791-118.736-.241-.388.51-.081.294-.537.282.43L517.784 505l-.39.872-73.893 165.989L611 757.966z" transform="translate(-243 28)"/>
                        <path fill="#727171" d="M517.992 506.481l91.728 248.986 28.236-173.217-119.964-75.769zm92.41 251.278l-.842.241-.174-.457L516 504l122.612 77.473.361.08.027.47-.081.736-28.517 175z" transform="translate(-243 28)"/>
                        <path fill="#727171" d="M443.33 671.52l166.206 85.167-92.618-249.928-73.587 164.761zM611 757.691l-1.156.309-.175-.092L442 671.989l.189-.442L517.026 504l.416 1.193L611 757.69z" transform="translate(-243 28)"/>
                        <path fill="#727171" d="M611.337 757.2l144.629-145.756-116.32-28.155-.012.16-28.297 173.752zM758 610.88L611.337 758.664 610 759l.133-.766L638.75 582l.562.148L758 610.879z" transform="translate(-243 28)"/>
                        <path fill="#727171" d="M654.158 441.26c3.156 6.468 67.609 111.586 102.423 168.158l53.103-199.221L655.5 439.579l.026.727-1.652-.403-.952.174-13.821 141.681 116.59 28.146c-4.23-6.819-27.88-45.277-51.196-83.374-51.049-83.44-51.655-85.201-51.426-85.672.013 0 .013-.015.013-.029l.19-.281.348.013-.081.539.497-.095c.04.04.066.12.12.256zm103.724 170.244l-.724-.175-.202.671-.511-.846L638 582.551l.042-.443 13.94-142.89 2.043-.35.428.12v-.242l.43-.08L810.463 409l.537.297-.107.389-53.546 200.943.535.875zM653.069 233.036c15.356-3.886 90.072-22.685 102.565-24.085L611.818 64.29l39.083 169.3c.389-.106 1.045-.273 2.168-.555zM758 209.896h-1.218c-7.663.014-87.555 20.097-103.472 24.139-1.647.408-2.609.656-2.65.676l-.6.289-.056-.67L610 61l148 148.895z" transform="translate(-243 28)"/>
                        <path fill="#727171" d="M651.685 234.925l157.468 173.1-52.748-197.98c-9.66.583-87.405 20.15-103.126 24.117l-1.594.763zM811 411l-1.178-.722L650 234.583l2.917-1.386C669 229.13 748.992 209.007 756.792 209h.39l.094.38L811 411zM211.765 756.972l197.539 53.2-120.162-153.493-77.377 100.293zM412 812l-202-54.45.457-.605L289.142 655 412 812zM357.125 533.755l158.635-28.37-146.704-136.177-11.93 164.547zM518 506.056l-1.033.175L356 535l.04-.644L368.17 367 518 506.056z" transform="translate(-243 28)"/>
                        <path fill="#9FA0A0" d="M599 757.994c0-6.066 4.934-10.994 10.98-10.994 6.1 0 11.02 4.928 11.02 10.994.015 6.078-4.92 11.006-11.02 11.006-6.046 0-10.98-4.928-10.98-11.006M748 610.499c0-4.692 3.808-8.499 8.505-8.499 4.687 0 8.508 3.807 8.495 8.499 0 4.693-3.808 8.501-8.495 8.501-4.722 0-8.505-3.808-8.505-8.501" transform="translate(-243 28)"/>
                        <g transform="translate(-243 28) translate(799 398)">
                            <mask id="ay0joun3lh" fill="#fff">
                                <use xlink:href="#963rq6508g"/>
                            </mask>
                            <path fill="#9FA0A0" d="M.23 11.8C.23 5.721 5.192.82 11.306.804c6.125 0 11.103 4.917 11.103 10.98 0 6.078-4.978 10.994-11.103 10.994C5.192 22.78.23 17.863.23 11.8" mask="url(#ay0joun3lh)"/>
                        </g>
                        <path fill="#9FA0A0" d="M748 209.498c0-4.698 3.808-8.51 8.505-8.498 4.687-.012 8.495 3.8 8.495 8.485 0 4.71-3.808 8.515-8.495 8.515-4.697 0-8.505-3.812-8.505-8.502M599 62.003c0-6.069 4.919-10.996 10.994-11.003 6.072.007 11.006 4.926 11.006 11.003C621 68.08 616.08 73 609.994 73c-6.075.008-11.007-4.913-10.994-10.997M402 8.493C402 3.81 405.795 0 410.495 0 415.192 0 419 3.81 419 8.493c0 4.69-3.808 8.507-8.505 8.507-4.7 0-8.495-3.817-8.495-8.507" transform="translate(-243 28)"/>
                        <g transform="translate(-243 28) translate(402 802)">
                            <mask id="0wc4xmf8zj" fill="#fff">
                                <use xlink:href="#4hxy4qks7i"/>
                            </mask>
                            <path fill="#9FA0A0" d="M.613 9.184C.613 4.324 4.45.382 9.186.382c4.764 0 8.614 3.942 8.614 8.802C17.8 14.03 13.95 18 9.2 18S.614 14.03.614 9.184" mask="url(#0wc4xmf8zj)"/>
                        </g>
                        <path fill="#9FA0A0" d="M357 368c0-6.086 4.92-11 11.007-11 6.073 0 10.993 4.914 10.993 11 0 6.078-4.92 11-11.019 11-6.061 0-10.981-4.922-10.981-11M506 504.994c0-6.065 4.916-10.994 11-10.994 6.068 0 11 4.929 11 10.994-.027 6.092-4.917 11.006-11.027 11.006-6.057 0-10.973-4.914-10.973-11.006M348 534.507c0-4.703 3.816-8.507 8.492-8.507 4.706 0 8.508 3.804 8.508 8.507 0 4.69-3.802 8.493-8.508 8.493-4.676 0-8.492-3.803-8.492-8.493M630 582.506c0-4.701 3.82-8.506 8.5-8.506 4.694 0 8.5 3.805 8.5 8.506 0 4.69-3.82 8.494-8.5 8.494-4.707 0-8.5-3.805-8.5-8.494M642 440c0-6.074 4.917-11 10.985-11 6.098 0 11.015 4.926 11.015 11s-4.917 11-11.015 11c-6.068 0-10.985-4.926-10.985-11M428 669.006c.013-6.092 4.93-11.006 10.987-11.006 6.096 0 11.013 4.914 11.013 11.006 0 6.078-4.917 10.994-11.013 10.994-6.07 0-10.987-4.916-10.987-10.994M281 656.493c0-4.688 3.806-8.493 8.5-8.493 4.68 0 8.5 3.805 8.5 8.493 0 4.703-3.806 8.507-8.5 8.507s-8.5-3.804-8.5-8.507M222 229.987c0-6.065 4.913-10.999 11-10.987 6.08-.012 11 4.917 11 10.993 0 6.078-4.932 11.007-11 11.007-6.073 0-11-4.929-11-11.013M440 197.006c0-6.085 4.93-11.013 11.012-11.006 6.058-.007 10.988 4.914 10.988 11 0 6.078-4.93 11-10.988 11-6.095 0-11.012-4.922-11.012-10.994M642 235.5c0-4.693 3.814-8.5 8.514-8.5 4.674 0 8.46 3.807 8.486 8.5-.027 4.693-3.812 8.5-8.5 8.5-4.686 0-8.487-3.807-8.5-8.5M343 106.497c.027-4.684 3.804-8.504 8.507-8.497 4.69 0 8.493 3.806 8.493 8.497 0 4.697-3.802 8.503-8.493 8.503-4.703.007-8.48-3.806-8.507-8.503M520 295.507c.039-4.702 3.816-8.507 8.507-8.507 4.69 0 8.493 3.805 8.493 8.507 0 4.69-3.804 8.493-8.493 8.493-4.691 0-8.507-3.804-8.507-8.493" transform="translate(-243 28)"/>
                    </g>
                </g>
            </g>
        </g>
    </g>
</svg>
