<svg xmlns="http://www.w3.org/2000/svg" width="46" height="38" viewBox="0 0 46 38">
    <g fill="none" fill-rule="evenodd">
        <g>
            <g>
                <path fill="#0090CF" d="M34.23 17.095c.065-.271.118-.547.159-.828.336-2.263-.06-5.377-2.473-7.294-2.701-2.148-7.949-2.16-10.423 1.976-2.474-4.135-7.722-4.123-10.424-1.976-2.413 1.917-2.809 5.03-2.473 7.294.663 4.466 4.156 7.619 12.897 14.184 5.005-3.76 8.289-6.4 10.307-8.809" transform="translate(-179 -992) translate(179 992)"/>
                <path fill="#505050" d="M21.493 37.999c-.105 0-.211-.033-.3-.101C7.437 27.565 1.29 22.244.165 14.658c-.277-1.872-.797-8.292 4.18-12.247C6.845.424 10.527-.422 13.957.2c3.107.567 5.755 2.285 7.536 4.87 1.78-2.585 4.429-4.303 7.536-4.87 3.432-.622 7.113.224 9.612 2.21 4.977 3.955 4.457 10.375 4.18 12.248-.07.468-.158.927-.266 1.38-.064.269-.335.439-.602.37-.27-.063-.435-.334-.371-.602.1-.424.184-.856.249-1.294.259-1.74.746-7.697-3.812-11.32-2.281-1.812-5.657-2.581-8.811-2.007-2.178.397-5.211 1.598-7.286 5.068-.18.3-.678.3-.858 0-2.075-3.47-5.108-4.671-7.286-5.068-3.153-.574-6.53.195-8.811 2.008C.409 6.816.896 12.773 1.155 14.513c1.005 6.77 5.97 11.554 20.338 22.36 7.883-5.93 13.084-10.125 16.267-13.926.176-.211.493-.238.704-.062.212.177.239.493.062.705-3.284 3.922-8.622 8.217-16.733 14.308-.09.068-.195.1-.3.1" transform="translate(-179 -992) translate(179 992)"/>
                <path fill="#505050" d="M21.493 28.999l-.047-.002c-.218-.02-.397-.181-.442-.395l-3.66-17.384-3.387 8.467c-.076.19-.26.314-.464.314h-7c-.276 0-.5-.224-.5-.5s.224-.5.5-.5h6.662l3.874-9.686c.082-.204.293-.324.507-.312.22.019.4.18.446.395L21.65 26.82l4.38-10.513c.078-.187.213-.292.462-.308.2 0 .38.119.459.303l2.576 6.01 1.518-3.037c.085-.17.258-.276.447-.276h14c.276 0 .5.224.5.5s-.224.5-.5.5H31.802l-1.862 3.724c-.087.174-.262.286-.462.276-.194-.006-.368-.124-.444-.303l-2.535-5.913-4.545 10.908c-.078.188-.261.308-.461.308" transform="translate(-179 -992) translate(179 992)"/>
            </g>
        </g>
    </g>
</svg>
