<svg xmlns="http://www.w3.org/2000/svg" xmlns:xlink="http://www.w3.org/1999/xlink" width="45" height="47" viewBox="0 0 45 47">
    <defs>
        <path id="p0lk03qxma" d="M-0.001 0.006L22.383 0.006 22.383 23.623 -0.001 23.623z"/>
    </defs>
    <g fill="none" fill-rule="evenodd">
        <g>
            <g>
                <path fill="#0090CF" d="M26.438 12.809l2.766-2.765c-.035.474.105 1.027.461 1.382.763.764 2.002.764 2.765 0 .764-.763.764-2 .001-2.763-.356-.356-.931-.522-1.383-.461l2.766-2.764 5.99 5.987c.763.764.763 2.003-.001 2.767l-5.992 5.988-7.373-7.371z" transform="translate(-470 -982) translate(470 982)"/>
                <path fill="#505050" d="M3.5 13.994c-1.378 0-2.5 1.121-2.5 2.5v27c0 1.38 1.122 2.5 2.5 2.5h26c1.378 0 2.5-1.12 2.5-2.5v-13.5h-4.449c.291.483.449 1 .449 1.5 0 1.93-1.57 3.5-3.5 3.5s-3.5-1.57-3.5-3.5c0-.503.157-1.02.446-1.5H16.5c-.276 0-.5-.224-.5-.5v-6c0-.215.138-.406.341-.475.206-.065.43.002.558.174.372.494.985.801 1.601.801 1.378 0 2.5-1.12 2.5-2.5 0-1.379-1.122-2.5-2.5-2.5-.556 0-1.106.284-1.637.844-.141.148-.358.196-.548.121-.19-.076-.315-.26-.315-.465v-5.5H3.5zm26 33h-26c-1.93 0-3.5-1.57-3.5-3.5v-27c0-1.93 1.57-3.5 3.5-3.5h13c.276 0 .5.224.5.5v4.942c.479-.294.98-.442 1.5-.442 1.93 0 3.5 1.57 3.5 3.5s-1.57 3.5-3.5 3.5c-.531 0-1.048-.144-1.5-.404v4.404h5.5c.206 0 .391.127.466.318.075.193.024.411-.128.55-.525.482-.838 1.092-.838 1.632 0 1.38 1.122 2.5 2.5 2.5s2.5-1.12 2.5-2.5c0-.533-.314-1.144-.841-1.634-.15-.14-.2-.358-.124-.549.075-.19.259-.317.465-.317h6c.276 0 .5.224.5.5v14c0 1.93-1.57 3.5-3.5 3.5z" transform="translate(-470 -982) translate(470 982)"/>
                <g transform="translate(-470 -982) translate(470 982) translate(22 .994)">
                    <mask id="h8y8flt0mb" fill="#fff">
                        <use xlink:href="#p0lk03qxma"/>
                    </mask>
                    <path fill="#505050" d="M1.206 11.815L11.81 22.416l8.84-8.834c.473-.472.733-1.1.733-1.768 0-.668-.26-1.296-.733-1.768l-8.835-8.833-3.128 3.125c.517.14 1.002.404 1.36.761.66.662 1.024 1.54 1.024 2.474 0 .934-.365 1.813-1.026 2.473-1.322 1.324-3.628 1.324-4.949 0-.355-.352-.614-.835-.75-1.37l-3.14 3.139zM11.81 23.623c-.128 0-.256-.05-.354-.147L.146 12.168c-.094-.093-.147-.22-.147-.353 0-.133.053-.26.146-.354L4.39 7.218c.148-.147.372-.188.562-.1.19.088.306.284.29.492-.05.66.171 1.339.562 1.728.944.947 2.591.945 3.535 0 .472-.47.733-1.098.733-1.766 0-.667-.26-1.295-.732-1.767-.404-.404-1.12-.638-1.7-.564-.219.035-.42-.082-.516-.274-.095-.192-.056-.425.095-.575l4.244-4.24c.195-.196.512-.196.707 0l9.188 9.185c.661.663 1.026 1.54 1.026 2.477 0 .936-.365 1.814-1.026 2.475l-9.194 9.187c-.098.098-.226.146-.353.146z" mask="url(#h8y8flt0mb)"/>
                </g>
                <path fill="#505050" d="M16.5 46.994c-.276 0-.5-.224-.5-.5v-5.92c-.463.262-1 .42-1.5.42-1.93 0-3.5-1.57-3.5-3.5s1.57-3.5 3.5-3.5c.502 0 1.038.157 1.5.42v-4.92c0-.276.224-.5.5-.5s.5.224.5.5v6c0 .218-.142.411-.349.477-.208.067-.435-.01-.56-.19-.31-.44-1.009-.787-1.591-.787-1.378 0-2.5 1.121-2.5 2.5 0 1.38 1.122 2.5 2.5 2.5.637 0 1.322-.41 1.593-.79.125-.177.351-.252.559-.187.207.067.348.26.348.477v7c0 .276-.224.5-.5.5" transform="translate(-470 -982) translate(470 982)"/>
                <path fill="#505050" d="M16.5 29.994h-6c-.21 0-.398-.132-.47-.329-.072-.197-.012-.419.149-.554.507-.425.821-1.044.821-1.617 0-1.379-1.122-2.5-2.5-2.5S6 26.115 6 27.494c0 .582.325 1.228.809 1.606.167.132.233.356.164.557-.07.201-.26.337-.473.337h-6c-.276 0-.5-.224-.5-.5s.224-.5.5-.5h4.923c-.269-.464-.423-.99-.423-1.5 0-1.93 1.57-3.5 3.5-3.5s3.5 1.57 3.5 3.5c0 .514-.152 1.033-.428 1.5H16.5c.276 0 .5.224.5.5s-.224.5-.5.5" transform="translate(-470 -982) translate(470 982)"/>
            </g>
        </g>
    </g>
</svg>
