<svg xmlns="http://www.w3.org/2000/svg" width="45" height="46" viewBox="0 0 45 46">
    <g fill="none" fill-rule="evenodd">
        <g>
            <g>
                <path fill="#0090CF" d="M2.432 33.477L12.523 43.569 16.569 39.523 6.477 29.432z" transform="translate(-760 -985) translate(760 985)"/>
                <path stroke="#505050" stroke-linecap="round" stroke-linejoin="round" d="M.5 33.5L12.5 45.5 18.5 39.5 6.5 27.5zM5.5 32.5L7.5 34.5M15.5 18.5L6.5 9.5 2.5.5 11.5 4.5 20.5 13.5M11.5 4.5L6.5 9.5" transform="translate(-760 -985) translate(760 985)"/>
                <g stroke="#505050" stroke-linecap="round" stroke-linejoin="round">
                    <path d="M25.5 15.5l9.586 9.586c.781.78.781 2.047 0 2.828l-2.172 2.172c-.781.78-2.047.78-2.828 0L20.5 20.5M32.5 22.5L27.5 27.5M.373 18.442l1.488-1.488c.516-.515.634-1.314.145-3.431C1.52 11.405 2.31 8.69 3.5 7.5l2-2" transform="translate(-760 -985) translate(760 985) translate(8 11)"/>
                    <path d="M26.5 14.5l-9 9c-3 3-5 1-7 3l-1 1M18.5 3.5L16.5 5.5M21.5 6.5L19.5 8.5M24.5 9.5L22.5 11.5M26.5 14.5c1.625-1.625.328-4.484-2-5 .484-1.094-.953-3.313-3-3 .5-1.5-1.406-3.25-3-3 0-2.266-3-4-5-2l-7 7" transform="translate(-760 -985) translate(760 985) translate(8 11)"/>
                </g>
            </g>
        </g>
    </g>
</svg>
