<svg xmlns="http://www.w3.org/2000/svg" width="45" height="37" viewBox="0 0 45 37">
    <g fill="none" fill-rule="evenodd">
        <g>
            <g>
                <path fill="#0090CF" d="M2.705 29h39.59c.39 0 .705-.315.705-.705v-2.59c0-.39-.316-.705-.705-.705H2.705c-.39 0-.705.315-.705.705v2.59c0 .39.315.705.705.705" transform="translate(-1050 -994) translate(1050 994)"/>
                <path fill="#505050" d="M2.5 1C1.673 1 1 1.673 1 2.5v26c0 .827.673 1.5 1.5 1.5h40c.827 0 1.5-.673 1.5-1.5v-26c0-.827-.673-1.5-1.5-1.5h-40zm40 30h-40C1.122 31 0 29.879 0 28.5v-26C0 1.121 1.122 0 2.5 0h40C43.878 0 45 1.121 45 2.5v26c0 1.379-1.122 2.5-2.5 2.5z" transform="translate(-1050 -994) translate(1050 994)"/>
                <path fill="#505050" d="M25.5 37c-.276 0-.5-.224-.5-.5v-6c0-.276.224-.5.5-.5s.5.224.5.5v6c0 .276-.224.5-.5.5M19.5 37c-.276 0-.5-.224-.5-.5v-6c0-.276.224-.5.5-.5s.5.224.5.5v6c0 .276-.224.5-.5.5" transform="translate(-1050 -994) translate(1050 994)"/>
                <path fill="#505050" d="M31.5 37h-18c-.276 0-.5-.224-.5-.5s.224-.5.5-.5h18c.276 0 .5.224.5.5s-.224.5-.5.5M3.5 7c-.128 0-.256-.049-.354-.146-.195-.196-.195-.512 0-.708l3-3c.196-.195.512-.195.708 0 .195.196.195.512 0 .708l-3 3C3.756 6.951 3.628 7 3.5 7M3.5 12c-.128 0-.256-.049-.354-.146-.195-.196-.195-.512 0-.708l8-8c.196-.195.512-.195.708 0 .195.196.195.512 0 .708l-8 8c-.098.097-.226.146-.354.146M44.5 24H.5c-.276 0-.5-.224-.5-.5s.224-.5.5-.5h44c.276 0 .5.224.5.5s-.224.5-.5.5M23.5 28h-2c-.276 0-.5-.224-.5-.5s.224-.5.5-.5h2c.276 0 .5.224.5.5s-.224.5-.5.5" transform="translate(-1050 -994) translate(1050 994)"/>
            </g>
        </g>
    </g>
</svg>
